<svg width="1122" height="212" viewBox="0 0 1122 212" fill="none" xmlns="http://www.w3.org/2000/svg">
<g clip-path="url(#clip0_81_436)">
<path d="M476.303 164.129H458.652V69.0709L476.303 67.5664V164.129ZM541.817 146.075L546.879 158.932C544.871 160.482 542.364 161.804 539.354 162.898C536.436 163.901 533.607 164.631 530.87 165.086C528.134 165.542 525.808 165.77 523.892 165.77C516.777 165.77 510.575 164.357 505.283 161.53C499.991 158.704 495.887 154.692 492.969 149.494C490.051 144.205 488.59 138.051 488.59 131.03C488.682 123.917 490.14 117.763 492.969 112.565C495.887 107.276 499.991 103.219 505.283 100.392C510.575 97.4745 516.777 96.0154 523.892 96.0154C525.808 96.0154 528.134 96.289 530.87 96.8361C533.607 97.3832 536.388 98.1583 539.217 99.1612C542.135 100.164 544.69 101.441 546.879 102.991L541.817 115.711C538.625 114.252 535.615 113.158 532.786 112.428C530.049 111.608 527.131 111.197 524.029 111.197C520.745 111.197 517.779 112.063 515.135 113.796C512.58 115.529 510.575 117.899 509.114 120.908C507.654 123.826 506.925 127.2 506.925 131.03C506.925 134.859 507.654 138.233 509.114 141.151C510.575 144.069 512.628 146.394 515.272 148.126C517.916 149.768 520.882 150.588 524.166 150.588C527.084 150.588 529.957 150.224 532.786 149.494C535.615 148.674 538.625 147.534 541.817 146.075ZM601.974 97.7935H619.761V164.129H607.994L605.121 157.017C602.295 159.023 599.329 160.71 596.227 162.077C593.217 163.354 590.254 164.357 587.333 165.086C584.507 165.907 581.908 166.317 579.534 166.317C573.513 166.317 568.861 165.132 565.577 162.761C562.293 160.391 560.015 157.199 558.736 153.187C557.46 149.084 556.82 144.479 556.82 139.373V97.7935H574.608V138.552C574.608 142.747 575.477 145.938 577.208 148.126C578.942 150.315 581.268 151.409 584.186 151.409C586.56 151.409 588.794 150.999 590.891 150.178C593.08 149.357 595.088 148.354 596.911 147.169C598.827 145.983 600.516 144.844 601.974 143.75V97.7935ZM654.024 164.129H636.373V69.0709L654.024 67.5664V164.129ZM683.958 144.297C683.958 145.573 684.324 146.804 685.053 147.99C685.782 149.084 686.739 149.996 687.926 150.725C689.202 151.364 690.663 151.683 692.305 151.683C694.768 151.683 697.231 151.135 699.694 150.041C702.249 148.947 704.664 147.306 706.946 145.117V134.996H693.536C690.434 134.996 688.063 135.954 686.421 137.868C684.779 139.783 683.958 141.926 683.958 144.297ZM676.843 116.805L672.054 102.034C673.788 100.848 676.159 99.8451 679.169 99.0245C682.18 98.1125 685.234 97.3832 688.337 96.8361C691.528 96.289 694.039 96.0154 695.862 96.0154C701.154 96.0154 705.988 97.0642 710.366 99.1612C714.745 101.258 718.21 104.176 720.765 107.915C723.41 111.562 724.733 115.756 724.733 120.498V164.129H713.103L710.093 157.017C707.63 159.57 704.893 161.667 701.883 163.308C698.965 164.95 695.862 165.77 692.579 165.77C684.461 165.77 678.441 163.81 674.517 159.889C670.594 155.877 668.633 150.68 668.633 144.297C668.633 137.458 670.96 132.261 675.612 128.704C680.264 125.057 686.329 123.188 693.81 123.097H706.809V122.96C706.716 119.677 705.714 117.124 703.799 115.301C701.975 113.386 699.42 112.428 696.136 112.428C693.034 112.428 689.661 112.884 686.011 113.796C682.361 114.708 679.306 115.711 676.843 116.805ZM771.656 98.0671L777.129 111.471H759.615V139.783C759.615 143.248 760.436 146.075 762.078 148.263C763.72 150.452 766.138 151.546 769.329 151.546C770.517 151.546 771.704 151.409 772.887 151.135C774.074 150.862 775.306 150.452 776.581 149.904L781.781 162.761C780.871 163.491 779.64 164.129 778.087 164.676C776.537 165.314 774.895 165.816 773.161 166.181C771.43 166.636 769.832 166.864 768.372 166.864C762.899 166.864 758.202 165.953 754.278 164.129C750.447 162.214 747.437 159.479 745.248 155.923C743.058 152.366 741.964 148.035 741.964 142.929V111.471H732.933L733.07 98.0671H741.964V82.2012L759.615 79.0554V98.0671H771.656ZM822.676 165.77C815.468 165.77 809.219 164.357 803.93 161.53C798.638 158.704 794.534 154.692 791.616 149.494C788.694 144.205 787.237 138.051 787.237 131.03C787.326 123.917 788.787 117.763 791.616 112.565C794.534 107.276 798.638 103.219 803.93 100.392C809.311 97.4745 815.561 96.0154 822.676 96.0154C829.972 96.0154 836.222 97.4287 841.421 100.255C846.71 103.082 850.815 107.094 853.736 112.292C856.654 117.489 858.115 123.644 858.115 130.756C858.115 137.777 856.654 143.932 853.736 149.221C850.815 154.509 846.71 158.613 841.421 161.53C836.13 164.357 829.88 165.77 822.676 165.77ZM822.813 150.588C826.186 150.588 829.107 149.722 831.57 147.99C834.122 146.257 836.13 143.886 837.59 140.877C839.047 137.868 839.779 134.494 839.779 130.756C839.779 126.926 839.047 123.553 837.59 120.635C836.13 117.717 834.122 115.437 831.57 113.796C829.014 112.063 826.049 111.197 822.676 111.197C819.392 111.197 816.426 112.063 813.782 113.796C811.227 115.529 809.219 117.899 807.761 120.908C806.301 123.826 805.572 127.2 805.572 131.03C805.572 134.859 806.301 138.233 807.761 141.151C809.219 144.069 811.271 146.394 813.919 148.126C816.563 149.768 819.529 150.588 822.813 150.588ZM886.763 164.129H868.975V97.7935H878.28L884.163 108.872C885.987 107.231 888.224 105.59 890.868 103.948C893.512 102.216 896.204 100.757 898.941 99.5716C901.77 98.3861 904.37 97.7935 906.74 97.7935L910.298 112.018C908.201 112.018 905.827 112.52 903.183 113.523C900.539 114.525 897.754 115.893 894.836 117.626C892.007 119.358 889.319 121.364 886.763 123.644V164.129Z" fill="#6E6D6A"/>
<path d="M289.379 21.8838L280.622 42.2358C276.536 40.9228 272.887 39.9014 269.676 39.172C266.465 38.2967 263.327 37.5673 260.262 36.9837C257.197 36.4 253.475 36.1083 249.097 36.1083C241.361 36.1083 234.356 38.2967 228.08 42.6735C221.804 47.0502 216.841 53.2506 213.193 61.2748C209.544 69.1529 207.72 78.7818 207.72 90.1615C207.72 97.3103 208.595 104.094 210.347 110.513C212.244 116.933 214.798 122.622 218.009 127.583C221.366 132.543 225.526 136.409 230.488 139.181C235.45 141.953 241.142 143.339 247.564 143.339C253.84 143.339 259.678 142.683 265.078 141.37C270.478 140.057 275.441 138.452 279.966 136.555L290.693 157.564C286.898 159.461 282.519 161.138 277.557 162.597C272.595 164.056 267.56 165.15 262.451 165.88C257.489 166.755 252.964 167.193 248.878 167.193C237.348 167.193 227.131 165.223 218.228 161.284C209.471 157.345 202.1 151.874 196.117 144.871C190.132 137.868 185.608 129.698 182.543 120.361C179.624 111.024 178.165 101.031 178.165 90.3803C178.165 79.0007 179.843 68.5693 183.2 59.0864C186.557 49.4575 191.373 41.1416 197.649 34.1388C204.071 27.1359 211.66 21.7379 220.417 17.9447C229.174 14.1515 239.026 12.2549 249.973 12.2549C252.891 12.2549 256.613 12.6196 261.138 13.3491C265.662 13.9326 270.406 14.9539 275.368 16.4128C280.33 17.7259 285.001 19.5495 289.379 21.8838Z" fill="#5B00D8"/>
<path d="M385.588 105.918L365.666 54.2719L346.182 105.918H385.588ZM354.282 15.3186H378.364L436.161 162.378L407.7 166.317L394.346 129.115H337.862L324.726 164.129H296.266L354.282 15.3186Z" fill="#BD95FF"/>
<path d="M426.6 51.2903H419.484V24.7561H424.137L425.341 27.5463C426.473 26.7804 427.639 26.1239 428.843 25.5768C430.085 24.9932 431.269 24.5738 432.401 24.3184C433.568 24.0267 434.628 23.8808 435.576 23.8808C437.984 23.8808 439.827 24.3549 441.103 25.3032C442.417 26.2515 443.33 27.5463 443.84 29.1876C444.387 30.7924 444.661 32.6161 444.661 34.6586V51.2903H437.546V34.9868C437.546 33.2726 437.2 31.9778 436.506 31.1024C435.812 30.2271 434.881 29.7894 433.715 29.7894C432.839 29.7894 431.963 29.9535 431.088 30.2818C430.212 30.6101 429.391 31.0295 428.625 31.5401C427.896 32.0507 427.219 32.5249 426.6 32.9626V51.2903ZM470.186 44.0686L472.212 49.2113C471.408 49.8313 470.405 50.3603 469.201 50.7979C468.035 51.199 466.903 51.491 465.808 51.6733C464.713 51.8555 463.783 51.9468 463.017 51.9468C460.171 51.9468 457.691 51.3816 455.573 50.2508C453.456 49.1201 451.814 47.5153 450.647 45.4364C449.481 43.3208 448.896 40.8589 448.896 38.0506C448.933 35.2057 449.515 32.7437 450.647 30.6648C451.814 28.5493 453.456 26.9263 455.573 25.7956C457.691 24.6285 460.171 24.0449 463.017 24.0449C463.783 24.0449 464.713 24.1543 465.808 24.3732C466.903 24.592 468.014 24.902 469.147 25.3032C470.313 25.7044 471.336 26.2151 472.212 26.8351L470.186 31.9231C468.911 31.3395 467.706 30.9018 466.574 30.6101C465.48 30.2818 464.313 30.1177 463.071 30.1177C461.758 30.1177 460.571 30.4642 459.514 31.1572C458.491 31.8502 457.691 32.7984 457.106 34.0021C456.521 35.1691 456.23 36.5187 456.23 38.0506C456.23 39.5824 456.521 40.9321 457.106 42.0991C457.691 43.2661 458.512 44.1962 459.569 44.8893C460.626 45.5458 461.813 45.8741 463.126 45.8741C464.293 45.8741 465.442 45.7281 466.574 45.4364C467.706 45.1081 468.911 44.6523 470.186 44.0686ZM500.217 40.1295H482.32C482.539 41.2966 482.939 42.3179 483.524 43.1933C484.105 44.032 484.947 44.6886 486.042 45.1628C487.136 45.6371 488.559 45.8741 490.311 45.8741C491.877 45.8741 493.266 45.6552 494.47 45.2175C495.674 44.7799 496.858 44.2146 498.028 43.5215L500.108 48.6643C499.304 49.3208 498.411 49.9045 497.426 50.415C496.475 50.8892 495.401 51.2537 494.197 51.5092C493.027 51.8008 491.679 51.9468 490.146 51.9468C486.715 51.9468 483.852 51.3816 481.554 50.2508C479.289 49.1201 477.592 47.5153 476.464 45.4364C475.331 43.3208 474.767 40.8589 474.767 38.0506C474.767 35.2057 475.294 32.7437 476.354 30.6648C477.449 28.5493 478.998 26.9263 481.006 25.7956C483.011 24.6285 485.385 24.0449 488.121 24.0449C490.892 24.0449 493.174 24.6832 494.963 25.9597C496.748 27.1998 498.062 28.8776 498.904 30.993C499.779 33.1085 500.217 35.4245 500.217 37.9412V40.1295ZM482.375 35.3698H493.485C493.266 34.1662 492.9 33.1814 492.39 32.4155C491.877 31.6495 491.241 31.0842 490.475 30.7195C489.743 30.3183 488.905 30.1177 487.957 30.1177C487.006 30.1177 486.151 30.3183 485.385 30.7195C484.619 31.1207 483.979 31.7043 483.469 32.4702C482.956 33.2361 482.593 34.2028 482.375 35.3698ZM511.69 51.2903H504.575V24.7561H508.297L510.65 29.1876C511.379 28.5311 512.275 27.8746 513.332 27.2181C514.389 26.5251 515.467 25.9415 516.561 25.4673C517.694 24.9932 518.734 24.7561 519.681 24.7561L521.104 30.4459C520.266 30.4459 519.315 30.6465 518.258 31.0477C517.201 31.4489 516.086 31.996 514.919 32.689C513.787 33.382 512.713 34.1844 511.69 35.0963V51.2903ZM545.668 51.2903H538.608V14.0877H550.211C552.948 14.0877 555.428 14.4889 557.655 15.2913C559.878 16.0938 561.65 17.3703 562.964 19.121C564.311 20.8717 564.989 23.1695 564.989 26.0144C564.989 28.0934 564.568 29.9171 563.73 31.4854C562.888 33.0538 561.739 34.3484 560.282 35.3698C558.859 36.3546 557.234 37.1024 555.411 37.6129C553.622 38.0872 551.744 38.3241 549.773 38.3241H545.668V51.2903ZM549.992 19.9964H545.668V32.4702H550.156C551.579 32.4702 552.818 32.2696 553.878 31.8684C554.973 31.4307 555.828 30.7742 556.45 29.8988C557.07 28.987 557.415 27.8381 557.49 26.4521C557.49 24.8473 557.179 23.5707 556.56 22.6224C555.975 21.6742 555.137 20.9994 554.042 20.5982C552.948 20.197 551.596 19.9964 549.992 19.9964ZM576.472 51.2903H569.357V24.7561H573.079L575.432 29.1876C576.161 28.5311 577.054 27.8746 578.114 27.2181C579.171 26.5251 580.249 25.9415 581.343 25.4673C582.472 24.9932 583.512 24.7561 584.463 24.7561L585.886 30.4459C585.044 30.4459 584.097 30.6465 583.04 31.0477C581.979 31.4489 580.868 31.996 579.701 32.689C578.569 33.382 577.491 34.1844 576.472 35.0963V51.2903ZM601.987 51.9468C599.104 51.9468 596.603 51.3816 594.486 50.2508C592.372 49.1201 590.73 47.5153 589.563 45.4364C588.393 43.3208 587.812 40.8589 587.812 38.0506C587.846 35.2057 588.431 32.7437 589.563 30.6648C590.73 28.5493 592.372 26.9263 594.486 25.7956C596.641 24.6285 599.141 24.0449 601.987 24.0449C604.905 24.0449 607.406 24.6102 609.486 25.7409C611.6 26.8716 613.241 28.4764 614.411 30.5553C615.578 32.6343 616.163 35.0963 616.163 37.9412C616.163 40.7495 615.578 43.2114 614.411 45.327C613.241 47.4425 611.6 49.0838 609.486 50.2508C607.368 51.3816 604.868 51.9468 601.987 51.9468ZM602.042 45.8741C603.39 45.8741 604.56 45.5277 605.545 44.8346C606.564 44.1415 607.368 43.1933 607.953 41.9897C608.535 40.7861 608.829 39.4364 608.829 37.9412C608.829 36.4093 608.535 35.0597 607.953 33.8926C607.368 32.7255 606.564 31.8137 605.545 31.1572C604.522 30.4642 603.335 30.1177 601.987 30.1177C600.674 30.1177 599.487 30.4642 598.43 31.1572C597.407 31.8502 596.603 32.7984 596.022 34.0021C595.437 35.1691 595.146 36.5187 595.146 38.0506C595.146 39.5824 595.437 40.9321 596.022 42.0991C596.603 43.2661 597.424 44.1962 598.484 44.8893C599.541 45.5458 600.728 45.8741 602.042 45.8741ZM624.667 51.2903H621.054V13.2671L628.115 12.6653V46.7494L624.667 51.2903ZM625.707 33.6191L623.682 28.9688C624.52 27.9475 625.412 27.0722 626.363 26.3427C627.349 25.6133 628.406 25.0479 629.538 24.6467C630.667 24.2455 631.854 24.0449 633.095 24.0449C635.866 24.0449 638.24 24.6102 640.211 25.7409C642.215 26.8716 643.748 28.4764 644.808 30.5553C645.903 32.6343 646.45 35.0781 646.45 37.8864C646.45 40.6948 645.903 43.1567 644.808 45.2723C643.748 47.3512 642.215 48.9925 640.211 50.1961C638.203 51.3631 635.74 51.9468 632.822 51.9468C631.761 51.9468 630.612 51.7099 629.374 51.2356C628.17 50.7613 627.054 50.1414 626.035 49.3755C625.012 48.6095 624.229 47.807 623.682 46.9683L625.707 42.1538C626.945 43.5763 628.132 44.561 629.264 45.1081C630.393 45.6186 631.58 45.8741 632.822 45.8741C634.17 45.8741 635.319 45.5277 636.27 44.8346C637.217 44.1415 637.912 43.1933 638.35 41.9897C638.822 40.7495 639.061 39.3817 639.061 37.8864C639.061 36.3546 638.822 35.0234 638.35 33.8926C637.874 32.7255 637.18 31.8137 636.27 31.1572C635.356 30.4642 634.207 30.1177 632.822 30.1177C631.542 30.1177 630.359 30.4094 629.264 30.993C628.17 31.5766 626.983 32.452 625.707 33.6191ZM656.23 43.3574C656.23 43.8679 656.377 44.3603 656.668 44.8346C656.958 45.2723 657.342 45.6371 657.817 45.9288C658.327 46.1842 658.912 46.3117 659.568 46.3117C660.554 46.3117 661.539 46.0929 662.524 45.6552C663.547 45.2175 664.511 44.561 665.425 43.6857V39.6372H660.061C658.819 39.6372 657.872 40.0201 657.215 40.7861C656.558 41.552 656.23 42.4092 656.23 43.3574ZM653.384 32.3608L651.468 26.4521C652.163 25.978 653.11 25.5768 654.314 25.2485C655.518 24.8838 656.739 24.592 657.981 24.3732C659.257 24.1543 660.263 24.0449 660.991 24.0449C663.109 24.0449 665.042 24.4643 666.793 25.3032C668.544 26.1421 669.93 27.3093 670.953 28.8046C672.01 30.2636 672.54 31.9413 672.54 33.8379V51.2903H667.888L666.684 48.4454C665.698 49.4668 664.604 50.3055 663.4 50.9621C662.233 51.6186 660.991 51.9468 659.678 51.9468C656.432 51.9468 654.023 51.1628 652.453 49.5943C650.883 47.9896 650.1 45.9106 650.1 43.3574C650.1 40.6219 651.03 38.543 652.891 37.1205C654.752 35.6615 657.177 34.914 660.17 34.8774H665.37V34.8227C665.332 33.5097 664.932 32.4884 664.166 31.759C663.437 30.993 662.414 30.6101 661.101 30.6101C659.859 30.6101 658.511 30.7924 657.051 31.1572C655.59 31.5219 654.369 31.9231 653.384 32.3608ZM682.498 51.2903H678.885V13.2671L685.946 12.6653V46.7494L682.498 51.2903ZM683.538 33.6191L681.512 28.9688C682.35 27.9475 683.247 27.0722 684.194 26.3427C685.18 25.6133 686.236 25.0479 687.369 24.6467C688.501 24.2455 689.685 24.0449 690.926 24.0449C693.701 24.0449 696.071 24.6102 698.041 25.7409C700.049 26.8716 701.582 28.4764 702.639 30.5553C703.734 32.6343 704.281 35.0781 704.281 37.8864C704.281 40.6948 703.734 43.1567 702.639 45.2723C701.582 47.3512 700.049 48.9925 698.041 50.1961C696.033 51.3631 693.57 51.9468 690.653 51.9468C689.596 51.9468 688.446 51.7099 687.205 51.2356C686 50.7613 684.889 50.1414 683.866 49.3755C682.843 48.6095 682.06 47.807 681.512 46.9683L683.538 42.1538C684.779 43.5763 685.963 44.561 687.095 45.1081C688.227 45.6186 689.411 45.8741 690.653 45.8741C692.004 45.8741 693.153 45.5277 694.101 44.8346C695.048 44.1415 695.743 43.1933 696.181 41.9897C696.656 40.7495 696.892 39.3817 696.892 37.8864C696.892 36.3546 696.656 35.0234 696.181 33.8926C695.705 32.7255 695.014 31.8137 694.101 31.1572C693.187 30.4642 692.038 30.1177 690.653 30.1177C689.377 30.1177 688.19 30.4094 687.095 30.993C686 31.5766 684.813 32.452 683.538 33.6191ZM715.812 51.2903H708.642V24.7561H715.812V51.2903ZM712.2 21.0359C711.071 21.0359 710.12 20.6529 709.354 19.887C708.588 19.0845 708.204 18.118 708.204 16.9873C708.204 15.8567 708.588 14.9084 709.354 14.1424C710.12 13.3765 711.05 12.9935 712.145 12.9935C713.24 12.9935 714.17 13.3765 714.936 14.1424C715.74 14.9084 716.141 15.8567 716.141 16.9873C716.141 18.118 715.757 19.0845 714.991 19.887C714.225 20.6529 713.294 21.0359 712.2 21.0359ZM729.399 51.2903H722.339V13.2671L729.399 12.6653V51.2903ZM743.127 51.2903H735.957V24.7561H743.127V51.2903ZM739.514 21.0359C738.382 21.0359 737.435 20.6529 736.668 19.887C735.902 19.0845 735.519 18.118 735.519 16.9873C735.519 15.8567 735.902 14.9084 736.668 14.1424C737.435 13.3765 738.365 12.9935 739.46 12.9935C740.554 12.9935 741.485 13.3765 742.251 14.1424C743.051 14.9084 743.455 15.8567 743.455 16.9873C743.455 18.118 743.072 19.0845 742.306 19.887C741.539 20.6529 740.609 21.0359 739.514 21.0359ZM762.074 24.8655L764.263 30.2271H757.258V41.552C757.258 42.9379 757.586 44.0686 758.243 44.944C758.9 45.8194 759.868 46.257 761.144 46.257C761.619 46.257 762.095 46.2023 762.567 46.0929C763.042 45.9835 763.535 45.8193 764.044 45.6005L766.124 50.7432C765.762 51.0349 765.269 51.2903 764.647 51.5092C764.027 51.7646 763.371 51.965 762.676 52.111C761.985 52.2932 761.345 52.3845 760.761 52.3845C758.571 52.3845 756.693 52.0197 755.123 51.2903C753.591 50.5244 752.387 49.4302 751.511 48.0077C750.635 46.5853 750.197 44.8527 750.197 42.8103V30.2271H746.585L746.64 24.8655H750.197V18.5192L757.258 17.2609V24.8655H762.074ZM775.367 52.5486L776.626 49.4302L767.486 25.905L774.491 23.7166L780.676 40.8408L786.423 24.7561H793.921L782.044 54.7917C781.497 56.2142 780.638 57.5091 779.472 58.6761C778.305 59.8797 776.971 60.8826 775.477 61.6852C774.016 62.4877 772.504 63.071 770.934 63.4359L768.416 57.5819C769.254 57.2171 770.15 56.7979 771.098 56.3236C772.083 55.8493 772.959 55.3022 773.725 54.6823C774.529 54.0624 775.076 53.3512 775.367 52.5486Z" fill="#B5B3AA"/>
<path fill-rule="evenodd" clip-rule="evenodd" d="M163.043 3.2892C162.819 2.79537 162.468 2.36808 162.024 2.05C161.58 1.73192 161.06 1.53418 160.514 1.47653C159.968 1.41887 159.417 1.50331 158.915 1.72142C158.413 1.93953 157.978 2.28367 157.652 2.71949C157.327 3.15532 157.124 3.66757 157.063 4.20509C157.001 4.74265 157.084 5.28663 157.302 5.78281C157.521 6.279 157.868 6.70997 158.308 7.03269C158.749 7.35544 159.267 7.55865 159.812 7.62208L160.172 8.32168C158.108 9.84022 156.611 11.9881 155.914 14.4316L152.218 12.496C152.306 11.5312 152.053 10.5661 151.502 9.76431C150.95 8.96251 150.135 8.37345 149.193 8.09693C148.251 7.82044 147.241 7.87358 146.335 8.24728C145.428 8.62101 144.681 9.29234 144.219 10.1474C143.757 11.0025 143.61 11.9887 143.801 12.9387C143.993 13.8888 144.512 14.7443 145.271 15.3602C146.029 15.976 146.98 16.3142 147.963 16.3175C148.945 16.3209 149.899 15.989 150.662 15.3783L152.152 16.1619C151.611 16.5022 151.106 16.8943 150.643 17.3326C149.273 18.6447 148.235 20.257 147.615 22.0386C147.506 22.3511 147.407 22.6729 147.326 22.9947C147.007 22.8921 146.673 22.8401 146.338 22.8408C145.872 22.8254 145.408 22.9125 144.981 23.096C144.553 23.2794 144.173 23.5544 143.866 23.9011C143.561 24.2477 143.337 24.6573 143.211 25.1C143.086 25.5427 143.062 26.0073 143.142 26.4601C143.222 26.913 143.403 27.3426 143.672 27.7177C143.941 28.0928 144.292 28.4041 144.699 28.6288C145.106 28.8535 145.558 28.986 146.023 29.0166C146.488 29.0473 146.955 28.9754 147.388 28.8061C147.869 30.334 148.737 31.716 149.91 32.8218L144.535 35.6714C143.903 35.4266 143.208 35.39 142.554 35.5678C141.899 35.7456 141.321 36.1279 140.906 36.6572C140.49 37.1865 140.26 37.8345 140.25 38.5036C140.24 39.1728 140.451 39.8269 140.85 40.3682C141.25 40.9092 141.816 41.3082 142.465 41.5048C143.114 41.7014 143.81 41.6854 144.449 41.4587C145.087 41.2323 145.634 40.8076 146.007 40.2482C146.38 39.6891 146.56 39.0258 146.517 38.358L149.536 36.7488C149.467 37.2764 149.459 37.8102 149.512 38.3392C149.608 39.3838 149.985 40.3836 150.605 41.2357C151.253 42.1053 152.175 42.7385 153.226 43.036C153.569 43.1362 153.921 43.2018 154.277 43.2319L153.662 44.0854C152.704 43.8741 151.701 43.9955 150.823 44.4294C149.945 44.8633 149.247 45.5827 148.845 46.466C148.444 47.3495 148.365 48.3422 148.621 49.2767C148.877 50.2112 149.453 51.0294 150.251 51.5933C151.049 52.1571 152.02 52.432 153 52.3708C153.98 52.31 154.908 51.9171 155.628 51.2585C156.348 50.6003 156.814 49.7167 156.949 48.7583C157.084 47.7995 156.879 46.8243 156.368 45.9975L157.489 44.44C157.718 45.1307 158.092 45.7664 158.586 46.3056C159.306 47.0698 160.202 47.6521 161.198 48.0033C162.174 48.3459 163.204 48.5118 164.24 48.493C164.912 48.494 165.582 48.4109 166.232 48.2457V48.3671C165.561 48.6937 165.018 49.2305 164.688 49.8932C164.358 50.5558 164.26 51.3078 164.409 52.031C164.558 52.7545 164.946 53.409 165.512 53.8925C166.078 54.3759 166.79 54.6615 167.538 54.7042C168.285 54.7469 169.026 54.5445 169.645 54.1287C170.263 53.7129 170.725 53.107 170.958 52.4054C171.191 51.7037 171.182 50.946 170.932 50.2502C170.682 49.5543 170.206 48.9594 169.577 48.5583L169.776 46.9956C170.503 47.2039 171.247 47.3488 172 47.4295C174.598 47.7082 177.216 47.131 179.446 45.7879C179.843 45.5503 180.225 45.29 180.591 45.009L181.286 45.979C181.078 46.323 180.919 46.6933 180.813 47.0797C180.574 47.965 180.634 48.9036 180.986 49.752C181.338 50.6 181.961 51.3115 182.762 51.7776C183.562 52.2436 184.495 52.4385 185.419 52.3325C186.342 52.2269 187.205 51.8261 187.876 51.1915C188.547 50.5569 188.988 49.7232 189.133 48.8181C189.278 47.913 189.119 46.9857 188.679 46.1784C188.239 45.3707 187.544 44.7272 186.699 44.346C185.853 43.9647 184.905 43.8666 183.997 44.0666L182.928 42.6209C183.453 41.9172 183.897 41.1584 184.253 40.359C184.616 39.5353 184.881 38.6729 185.043 37.789C186.179 37.4806 187.232 36.926 188.123 36.1658L192.225 37.5979C192.384 38.2503 192.754 38.8336 193.279 39.2603C193.804 39.6867 194.456 39.9329 195.136 39.9617C195.816 39.9904 196.487 39.8003 197.047 39.4193C197.608 39.0388 198.027 38.4886 198.242 37.8519C198.457 37.2156 198.456 36.5273 198.239 35.8916C198.021 35.2556 197.6 34.7071 197.038 34.3283C196.477 33.9496 195.805 33.7617 195.125 33.7928C194.445 33.8239 193.794 34.0725 193.271 34.5009L190.333 33.4748C190.815 32.6184 191.175 31.7002 191.402 30.7463C191.716 29.4548 191.787 28.1173 191.61 26.8006C191.286 24.4912 190.262 22.3321 188.672 20.6067L190.119 19.9118C190.708 20.3666 191.432 20.617 192.179 20.6238C192.927 20.6306 193.655 20.3936 194.252 19.9497C194.848 19.5057 195.279 18.8797 195.477 18.1693C195.675 17.4587 195.629 16.7037 195.346 16.0216C195.064 15.3395 194.56 14.7687 193.914 14.3981C193.268 14.0276 192.516 13.878 191.775 13.9728C191.033 14.0676 190.345 14.4014 189.816 14.9222C189.288 15.443 188.949 16.1216 188.852 16.8522L186.212 18.1255C186.539 16.4168 186.351 14.6512 185.672 13.0463C185.516 12.7029 185.329 12.3736 185.114 12.0622L187.891 9.19386C188.812 9.53032 189.822 9.54297 190.751 9.22962C191.679 8.91628 192.47 8.29621 192.988 7.47437C193.506 6.65249 193.72 5.67934 193.595 4.71963C193.469 3.75989 193.01 2.87253 192.297 2.20774C191.584 1.54296 190.659 1.14157 189.68 1.07153C188.701 1.00149 187.727 1.2671 186.924 1.8234C186.121 2.37969 185.537 3.1925 185.272 4.12426C185.007 5.05599 185.076 6.04945 185.469 6.93647L182.63 9.88412C181.48 9.31053 180.205 9.02385 178.916 9.04929C177.724 9.05678 176.552 9.34968 175.5 9.90279C175.101 9.45575 174.664 9.04235 174.195 8.66683L174.521 5.94304C175.148 5.68882 175.674 5.24098 176.021 4.6668C176.368 4.09259 176.516 3.42298 176.444 2.75856C176.372 2.09414 176.083 1.47075 175.62 0.982005C175.158 0.493262 174.548 0.165553 173.88 0.0480847C173.213 -0.0693838 172.525 0.0297311 171.92 0.330545C171.314 0.63136 170.824 1.11763 170.523 1.71635C170.222 2.31506 170.126 2.9939 170.25 3.65091C170.374 4.30791 170.71 4.90766 171.209 5.36004L171.006 6.9085C170.408 6.69024 169.792 6.52174 169.165 6.40476C167.672 6.11794 166.136 6.11794 164.643 6.40476C164.132 6.50177 163.629 6.63427 163.138 6.8012L162.831 6.2089C163.11 5.77775 163.277 5.28451 163.315 4.7739C163.353 4.26329 163.261 3.75137 163.048 3.28454L163.043 3.2892ZM181.187 24.9722C181.551 25.0719 181.878 25.2755 182.125 25.5575C182.372 25.8393 182.529 26.187 182.576 26.5566C182.623 26.9263 182.558 27.3014 182.389 27.6348C182.221 27.9682 181.956 28.2451 181.628 28.4305C181.3 28.616 180.925 28.7018 180.548 28.6771C180.17 28.6524 179.809 28.5183 179.509 28.2918C179.209 28.0652 178.984 27.7563 178.861 27.4038C178.739 27.0513 178.725 26.6711 178.821 26.3108C178.886 26.0689 178.999 25.8421 179.153 25.6436C179.308 25.445 179.5 25.2786 179.72 25.1541C179.941 25.0295 180.184 24.9493 180.435 24.9181C180.687 24.8869 180.943 24.9053 181.187 24.9722ZM172.709 19.576C173.279 19.4612 173.871 19.5157 174.41 19.7326C174.949 19.9495 175.41 20.319 175.736 20.7944C176.062 21.2699 176.237 21.8298 176.24 22.4036C176.243 22.9773 176.074 23.539 175.753 24.0177C175.432 24.4964 174.974 24.8705 174.438 25.0928C173.901 25.3151 173.31 25.3756 172.738 25.2666C172.167 25.1576 171.641 24.884 171.228 24.4805C170.814 24.0769 170.531 23.5615 170.414 22.9994C170.259 22.2455 170.414 21.4619 170.844 20.8201C171.274 20.1784 171.945 19.731 172.709 19.576ZM164.453 15.3317C164.855 15.2514 165.271 15.2902 165.651 15.4432C166.03 15.5963 166.354 15.8567 166.583 16.1916C166.813 16.5265 166.936 16.9207 166.938 17.3247C166.94 17.7286 166.82 18.1239 166.594 18.4608C166.368 18.7977 166.045 19.0609 165.668 19.2173C165.29 19.3737 164.873 19.4161 164.471 19.3393C164.069 19.2625 163.699 19.0698 163.408 18.7857C163.117 18.5016 162.917 18.1387 162.835 17.743C162.781 17.4799 162.779 17.2088 162.831 16.9452C162.883 16.6816 162.987 16.4306 163.137 16.2066C163.287 15.9827 163.481 15.7902 163.707 15.64C163.933 15.4899 164.186 15.3851 164.453 15.3317ZM158 28.1111C158.449 28.2335 158.852 28.4842 159.158 28.8317C159.463 29.1791 159.658 29.6077 159.717 30.0638C159.776 30.5199 159.697 30.9829 159.49 31.3948C159.282 31.8068 158.956 32.1491 158.552 32.3789C158.148 32.6086 157.684 32.7156 157.219 32.6862C156.754 32.6569 156.308 32.4926 155.936 32.2139C155.566 31.9353 155.287 31.5548 155.134 31.1203C154.982 30.6857 154.963 30.2165 155.081 29.7715C155.16 29.4723 155.298 29.1916 155.488 28.9457C155.679 28.6998 155.916 28.4936 156.188 28.3391C156.459 28.1846 156.759 28.0848 157.071 28.0457C157.382 28.0066 157.698 28.0288 158 28.1111ZM166.398 24.4312C167.014 24.5889 167.569 24.9235 167.992 25.3927C168.415 25.8619 168.687 26.4445 168.773 27.0664C168.86 27.6883 168.757 28.3215 168.478 28.8856C168.198 29.4497 167.755 29.9193 167.205 30.2347C166.654 30.5501 166.021 30.6971 165.386 30.657C164.75 30.6169 164.141 30.3915 163.636 30.0096C163.131 29.6275 162.752 29.1061 162.548 28.5115C162.344 27.9169 162.324 27.2759 162.49 26.6699C162.711 25.8594 163.249 25.1683 163.986 24.7486C164.723 24.3288 165.599 24.2147 166.421 24.4312H166.398ZM164.699 35.5083C164.934 35.5709 165.145 35.7005 165.305 35.881C165.465 36.0612 165.567 36.2845 165.598 36.5221C165.63 36.7598 165.589 37.0012 165.481 37.2163C165.374 37.431 165.204 37.6098 164.993 37.7295C164.782 37.8492 164.541 37.9046 164.298 37.8892C164.056 37.8735 163.823 37.7873 163.63 37.6413C163.437 37.4956 163.292 37.2966 163.214 37.0696C163.136 36.8429 163.127 36.598 163.19 36.3666C163.275 36.0557 163.482 35.7911 163.765 35.6304C164.048 35.4693 164.384 35.4255 164.699 35.5083ZM174.914 33.4048C175.278 33.5045 175.604 33.7081 175.851 33.99C176.098 34.2719 176.255 34.6196 176.302 34.9892C176.349 35.3589 176.285 35.734 176.116 36.0674C175.947 36.4007 175.683 36.6777 175.355 36.863C175.027 37.0484 174.651 37.1342 174.274 37.1096C173.897 37.085 173.536 36.9509 173.236 36.7242C172.936 36.4979 172.71 36.1887 172.588 35.8362C172.466 35.484 172.452 35.1034 172.548 34.7434C172.61 34.4999 172.721 34.2712 172.875 34.0708C173.028 33.8705 173.221 33.7028 173.442 33.5779C173.663 33.4529 173.907 33.3731 174.16 33.3434C174.413 33.3136 174.669 33.3345 174.914 33.4048ZM166.871 45.5311L166.705 45.382C166.346 45.0432 166.029 44.6646 165.759 44.2533C165.637 44.002 165.611 43.7154 165.686 43.4463C165.76 43.1772 165.931 42.944 166.167 42.7898C166.403 42.6353 166.687 42.5699 166.968 42.6058C167.248 42.6418 167.506 42.7761 167.694 42.9847C167.869 43.2473 168.076 43.4887 168.309 43.7031C168.559 43.9363 168.827 44.1487 169.113 44.3374C170.109 44.7614 171.163 45.0367 172.241 45.1536C174.325 45.3762 176.425 44.9101 178.211 43.8289C179.93 42.7929 181.282 41.2583 182.081 39.4354C182.461 38.5963 182.715 37.7069 182.834 36.7957C182.834 36.7629 182.834 36.7304 182.834 36.6931C182.878 36.2619 182.878 35.8273 182.834 35.3965C182.794 34.994 182.712 34.597 182.588 34.2117C182.541 34.0674 182.524 33.9156 182.537 33.7647C182.55 33.6139 182.592 33.467 182.663 33.3326C182.733 33.1981 182.83 33.0786 182.948 32.981C183.065 32.8833 183.201 32.8094 183.347 32.7635C183.493 32.7176 183.647 32.7005 183.8 32.7132C183.953 32.726 184.102 32.7684 184.239 32.8379C184.375 32.9074 184.496 33.0027 184.595 33.1184C184.695 33.234 184.769 33.3678 184.816 33.5121C184.99 34.0536 185.106 34.6117 185.161 35.1773V35.2983C186.303 34.768 187.268 33.9284 187.943 32.8778C188.491 32.0549 188.887 31.1442 189.117 30.1866C189.365 29.1669 189.421 28.1108 189.282 27.0711C188.946 24.5618 187.442 21.9406 184.225 19.8418C184.023 19.7129 183.867 19.526 183.777 19.3065C183.688 19.087 183.669 18.8457 183.723 18.6152C184.196 16.6376 184.031 15.1218 183.515 14.0025C183.127 13.1433 182.462 12.4348 181.622 11.9876C180.791 11.5532 179.861 11.3364 178.921 11.358C177.864 11.3414 176.835 11.6858 176.007 12.3328C175.91 12.4145 175.801 12.482 175.685 12.5333C175.269 12.7671 174.923 13.105 174.682 13.5127C174.332 14.0145 174.093 14.5835 173.982 15.1824C173.932 15.4843 173.763 15.7543 173.511 15.9332C173.26 16.1121 172.947 16.1851 172.641 16.1362C172.334 16.0874 172.06 15.9207 171.879 15.6727C171.697 15.4247 171.623 15.1158 171.673 14.814C171.838 13.888 172.201 13.0072 172.737 12.2301C172.973 11.879 173.245 11.5538 173.551 11.26C172.254 9.91893 170.56 9.01622 168.711 8.68082C167.513 8.45001 166.281 8.45001 165.082 8.68082C163.873 8.9107 162.726 9.38729 161.714 10.08C159.883 11.3393 158.44 13.4008 157.867 16.3252V16.3765C157.796 16.7909 157.76 17.2106 157.759 17.6311C157.761 18.0275 157.811 18.4221 157.91 18.8064C157.949 18.954 157.958 19.1077 157.937 19.2588C157.915 19.4098 157.864 19.5552 157.785 19.6866C157.707 19.818 157.603 19.933 157.48 20.0248C157.356 20.1167 157.215 20.1837 157.066 20.2219C156.916 20.2602 156.76 20.269 156.607 20.2479C156.454 20.2268 156.306 20.1761 156.173 20.0988C156.039 20.0216 155.923 19.9191 155.83 19.7974C155.736 19.6757 155.669 19.537 155.63 19.3894C155.476 18.8186 155.397 18.2309 155.393 17.6404C155.393 17.5285 155.393 17.4165 155.393 17.3046C154.19 17.5595 153.087 18.1524 152.218 19.0116C151.118 20.0671 150.288 21.3652 149.796 22.7988C149.267 24.249 149.134 25.8105 149.408 27.3276C149.616 28.3325 150.032 29.2842 150.63 30.123C151.228 30.9618 151.996 31.6695 152.886 32.2015C152.936 32.2314 152.985 32.2641 153.032 32.2994C153.275 32.4902 153.432 32.7681 153.467 33.0724C153.503 33.3767 153.414 33.6824 153.221 33.9225C152.228 35.0928 151.734 36.598 151.845 38.12C151.9 38.7488 152.122 39.352 152.488 39.869C152.839 40.3368 153.339 40.6749 153.908 40.8298C154.929 41.1283 156.339 40.956 158.118 40.0745C158.384 39.9333 158.695 39.9011 158.984 39.9856C159.132 40.0277 159.27 40.0977 159.39 40.1921C159.51 40.2865 159.61 40.4034 159.684 40.5358C159.758 40.6684 159.805 40.8141 159.822 40.9646C159.839 41.115 159.826 41.2675 159.784 41.4128C159.329 42.8962 159.651 43.9876 160.328 44.7617C160.798 45.2408 161.377 45.6036 162.017 45.8204C162.727 46.0775 163.479 46.2057 164.235 46.1982C165.158 46.2252 166.068 45.989 166.856 45.5174L166.871 45.5311Z" fill="#5B00D8"/>
</g>
<defs>
<clipPath id="clip0_81_436">
<rect width="1122" height="212" fill="white"/>
</clipPath>
</defs>
</svg>
