<svg width="328" height="62" viewBox="0 0 328 62" fill="none" xmlns="http://www.w3.org/2000/svg">
<g clip-path="url(#clip0_130_519)">
<path d="M139.24 48H134.08V20.2L139.24 19.76V48ZM158.392 42.72L159.872 46.48C159.285 46.9333 158.552 47.32 157.672 47.64C156.819 47.9333 155.992 48.1467 155.192 48.28C154.392 48.4133 153.712 48.48 153.152 48.48C151.072 48.48 149.259 48.0667 147.712 47.24C146.165 46.4133 144.965 45.24 144.112 43.72C143.259 42.1733 142.832 40.3733 142.832 38.32C142.859 36.24 143.285 34.44 144.112 32.92C144.965 31.3733 146.165 30.1867 147.712 29.36C149.259 28.5067 151.072 28.08 153.152 28.08C153.712 28.08 154.392 28.16 155.192 28.32C155.992 28.48 156.805 28.7067 157.632 29C158.485 29.2933 159.232 29.6667 159.872 30.12L158.392 33.84C157.459 33.4133 156.579 33.0933 155.752 32.88C154.952 32.64 154.099 32.52 153.192 32.52C152.232 32.52 151.365 32.7733 150.592 33.28C149.845 33.7867 149.259 34.48 148.832 35.36C148.405 36.2133 148.192 37.2 148.192 38.32C148.192 39.44 148.405 40.4267 148.832 41.28C149.259 42.1333 149.859 42.8133 150.632 43.32C151.405 43.8 152.272 44.04 153.232 44.04C154.085 44.04 154.925 43.9333 155.752 43.72C156.579 43.48 157.459 43.1467 158.392 42.72ZM175.978 28.6H181.178V48H177.738L176.898 45.92C176.072 46.5067 175.205 47 174.298 47.4C173.418 47.7733 172.552 48.0667 171.698 48.28C170.872 48.52 170.112 48.64 169.418 48.64C167.658 48.64 166.298 48.2933 165.338 47.6C164.378 46.9067 163.712 45.9733 163.338 44.8C162.965 43.6 162.778 42.2533 162.778 40.76V28.6H167.978V40.52C167.978 41.7467 168.232 42.68 168.738 43.32C169.245 43.96 169.925 44.28 170.778 44.28C171.472 44.28 172.125 44.16 172.738 43.92C173.378 43.68 173.965 43.3867 174.498 43.04C175.058 42.6933 175.552 42.36 175.978 42.04V28.6ZM191.194 48H186.034V20.2L191.194 19.76V48ZM199.945 42.2C199.945 42.5733 200.052 42.9333 200.265 43.28C200.478 43.6 200.758 43.8667 201.105 44.08C201.478 44.2667 201.905 44.36 202.385 44.36C203.105 44.36 203.825 44.2 204.545 43.88C205.292 43.56 205.998 43.08 206.665 42.44V39.48H202.745C201.838 39.48 201.145 39.76 200.665 40.32C200.185 40.88 199.945 41.5067 199.945 42.2ZM197.865 34.16L196.465 29.84C196.972 29.4933 197.665 29.2 198.545 28.96C199.425 28.6933 200.318 28.48 201.225 28.32C202.158 28.16 202.892 28.08 203.425 28.08C204.972 28.08 206.385 28.3867 207.665 29C208.945 29.6133 209.958 30.4667 210.705 31.56C211.478 32.6267 211.865 33.8533 211.865 35.24V48H208.465L207.585 45.92C206.865 46.6667 206.065 47.28 205.185 47.76C204.332 48.24 203.425 48.48 202.465 48.48C200.092 48.48 198.332 47.9067 197.185 46.76C196.038 45.5867 195.465 44.0667 195.465 42.2C195.465 40.2 196.145 38.68 197.505 37.64C198.865 36.5733 200.638 36.0267 202.825 36H206.625V35.96C206.598 35 206.305 34.2533 205.745 33.72C205.212 33.16 204.465 32.88 203.505 32.88C202.598 32.88 201.612 33.0133 200.545 33.28C199.478 33.5467 198.585 33.84 197.865 34.16ZM225.582 28.68L227.182 32.6H222.062V40.88C222.062 41.8933 222.302 42.72 222.782 43.36C223.262 44 223.969 44.32 224.902 44.32C225.249 44.32 225.596 44.28 225.942 44.2C226.289 44.12 226.649 44 227.022 43.84L228.542 47.6C228.276 47.8133 227.916 48 227.462 48.16C227.009 48.3467 226.529 48.4933 226.022 48.6C225.516 48.7333 225.049 48.8 224.622 48.8C223.022 48.8 221.649 48.5333 220.502 48C219.382 47.44 218.502 46.64 217.862 45.6C217.222 44.56 216.902 43.2933 216.902 41.8V32.6H214.262L214.302 28.68H216.902V24.04L222.062 23.12V28.68H225.582ZM240.497 48.48C238.39 48.48 236.563 48.0667 235.017 47.24C233.47 46.4133 232.27 45.24 231.417 43.72C230.563 42.1733 230.137 40.3733 230.137 38.32C230.163 36.24 230.59 34.44 231.417 32.92C232.27 31.3733 233.47 30.1867 235.017 29.36C236.59 28.5067 238.417 28.08 240.497 28.08C242.63 28.08 244.457 28.4933 245.977 29.32C247.523 30.1467 248.723 31.32 249.577 32.84C250.43 34.36 250.857 36.16 250.857 38.24C250.857 40.2933 250.43 42.0933 249.577 43.64C248.723 45.1867 247.523 46.3867 245.977 47.24C244.43 48.0667 242.603 48.48 240.497 48.48ZM240.537 44.04C241.523 44.04 242.377 43.7867 243.097 43.28C243.843 42.7733 244.43 42.08 244.857 41.2C245.283 40.32 245.497 39.3333 245.497 38.24C245.497 37.12 245.283 36.1333 244.857 35.28C244.43 34.4267 243.843 33.76 243.097 33.28C242.35 32.7733 241.483 32.52 240.497 32.52C239.537 32.52 238.67 32.7733 237.897 33.28C237.15 33.7867 236.563 34.48 236.137 35.36C235.71 36.2133 235.497 37.2 235.497 38.32C235.497 39.44 235.71 40.4267 236.137 41.28C236.563 42.1333 237.163 42.8133 237.937 43.32C238.71 43.8 239.577 44.04 240.537 44.04ZM259.232 48H254.032V28.6H256.752L258.472 31.84C259.005 31.36 259.659 30.88 260.432 30.4C261.205 29.8933 261.992 29.4667 262.792 29.12C263.619 28.7733 264.379 28.6 265.072 28.6L266.112 32.76C265.499 32.76 264.805 32.9067 264.032 33.2C263.259 33.4933 262.445 33.8933 261.592 34.4C260.765 34.9067 259.979 35.4933 259.232 36.16V48Z" fill="#6E6D6A"/>
<path d="M84.596 6.40001L82.036 12.352C80.8413 11.968 79.7746 11.6693 78.836 11.456C77.8973 11.2 76.98 10.9867 76.084 10.816C75.188 10.6453 74.1 10.56 72.82 10.56C70.5586 10.56 68.5106 11.2 66.676 12.48C64.8413 13.76 63.3906 15.5733 62.324 17.92C61.2573 20.224 60.724 23.04 60.724 26.368C60.724 28.4587 60.98 30.4427 61.492 32.32C62.0466 34.1973 62.7933 35.8613 63.732 37.312C64.7133 38.7627 65.9293 39.8933 67.38 40.704C68.8306 41.5147 70.4946 41.92 72.372 41.92C74.2066 41.92 75.9133 41.728 77.492 41.344C79.0706 40.96 80.5213 40.4907 81.844 39.936L84.98 46.08C83.8706 46.6347 82.5906 47.1253 81.14 47.552C79.6893 47.9787 78.2173 48.2987 76.724 48.512C75.2733 48.768 73.9506 48.896 72.756 48.896C69.3853 48.896 66.3986 48.32 63.796 47.168C61.236 46.016 59.0813 44.416 57.332 42.368C55.5826 40.32 54.26 37.9307 53.364 35.2C52.5106 32.4693 52.084 29.5467 52.084 26.432C52.084 23.104 52.5746 20.0533 53.556 17.28C54.5373 14.464 55.9453 12.032 57.78 9.98401C59.6573 7.93601 61.876 6.35734 64.436 5.24801C66.996 4.13868 69.876 3.58401 73.076 3.58401C73.9293 3.58401 75.0173 3.69068 76.34 3.90401C77.6626 4.07467 79.0493 4.37334 80.5 4.80001C81.9506 5.18401 83.316 5.71734 84.596 6.40001Z" fill="#5B00D8"/>
<path d="M112.721 30.976L106.897 15.872L101.201 30.976H112.721ZM103.569 4.48001H110.609L127.505 47.488L119.185 48.64L115.281 37.76H98.7684L94.9284 48H86.6084L103.569 4.48001Z" fill="#BD95FF"/>
<path d="M124.71 15H122.63V7.24001H123.99L124.342 8.05601C124.673 7.83201 125.014 7.64001 125.366 7.48001C125.729 7.30934 126.075 7.18668 126.406 7.11201C126.747 7.02668 127.057 6.98401 127.334 6.98401C128.038 6.98401 128.577 7.12268 128.95 7.40001C129.334 7.67734 129.601 8.05601 129.75 8.53601C129.91 9.00534 129.99 9.53868 129.99 10.136V15H127.91V10.232C127.91 9.73068 127.809 9.35201 127.606 9.09601C127.403 8.84001 127.131 8.71201 126.79 8.71201C126.534 8.71201 126.278 8.76001 126.022 8.85601C125.766 8.95201 125.526 9.07468 125.302 9.22401C125.089 9.37334 124.891 9.51201 124.71 9.64001V15ZM137.452 12.888L138.044 14.392C137.809 14.5733 137.516 14.728 137.164 14.856C136.823 14.9733 136.492 15.0587 136.172 15.112C135.852 15.1653 135.58 15.192 135.356 15.192C134.524 15.192 133.799 15.0267 133.18 14.696C132.561 14.3653 132.081 13.896 131.74 13.288C131.399 12.6693 131.228 11.9493 131.228 11.128C131.239 10.296 131.409 9.57601 131.74 8.96801C132.081 8.34934 132.561 7.87468 133.18 7.54401C133.799 7.20268 134.524 7.03201 135.356 7.03201C135.58 7.03201 135.852 7.06401 136.172 7.12801C136.492 7.19201 136.817 7.28268 137.148 7.40001C137.489 7.51734 137.788 7.66668 138.044 7.84801L137.452 9.33601C137.079 9.16534 136.727 9.03734 136.396 8.95201C136.076 8.85601 135.735 8.80801 135.372 8.80801C134.988 8.80801 134.641 8.90934 134.332 9.11201C134.033 9.31468 133.799 9.59201 133.628 9.94401C133.457 10.2853 133.372 10.68 133.372 11.128C133.372 11.576 133.457 11.9707 133.628 12.312C133.799 12.6533 134.039 12.9253 134.348 13.128C134.657 13.32 135.004 13.416 135.388 13.416C135.729 13.416 136.065 13.3733 136.396 13.288C136.727 13.192 137.079 13.0587 137.452 12.888ZM146.231 11.736H140.999C141.063 12.0773 141.18 12.376 141.351 12.632C141.521 12.8773 141.767 13.0693 142.087 13.208C142.407 13.3467 142.823 13.416 143.335 13.416C143.793 13.416 144.199 13.352 144.551 13.224C144.903 13.096 145.249 12.9307 145.591 12.728L146.199 14.232C145.964 14.424 145.703 14.5947 145.415 14.744C145.137 14.8827 144.823 14.9893 144.471 15.064C144.129 15.1493 143.735 15.192 143.287 15.192C142.284 15.192 141.447 15.0267 140.775 14.696C140.113 14.3653 139.617 13.896 139.287 13.288C138.956 12.6693 138.791 11.9493 138.791 11.128C138.791 10.296 138.945 9.57601 139.255 8.96801C139.575 8.34934 140.028 7.87468 140.615 7.54401C141.201 7.20268 141.895 7.03201 142.695 7.03201C143.505 7.03201 144.172 7.21868 144.695 7.59201C145.217 7.95468 145.601 8.44534 145.847 9.06401C146.103 9.68268 146.231 10.36 146.231 11.096V11.736ZM141.015 10.344H144.263C144.199 9.99201 144.092 9.70401 143.943 9.48001C143.793 9.25601 143.607 9.09068 143.383 8.98401C143.169 8.86668 142.924 8.80801 142.647 8.80801C142.369 8.80801 142.119 8.86668 141.895 8.98401C141.671 9.10134 141.484 9.27201 141.335 9.49601C141.185 9.72001 141.079 10.0027 141.015 10.344ZM149.585 15H147.505V7.24001H148.593L149.281 8.53601C149.494 8.34401 149.756 8.15201 150.065 7.96001C150.374 7.75734 150.689 7.58668 151.009 7.44801C151.34 7.30934 151.644 7.24001 151.921 7.24001L152.337 8.90401C152.092 8.90401 151.814 8.96268 151.505 9.08001C151.196 9.19734 150.87 9.35734 150.529 9.56001C150.198 9.76268 149.884 9.99734 149.585 10.264V15ZM159.518 15H157.454V4.12001H160.846C161.646 4.12001 162.371 4.23734 163.022 4.47201C163.672 4.70668 164.19 5.08001 164.574 5.59201C164.968 6.10401 165.166 6.77601 165.166 7.60801C165.166 8.21601 165.043 8.74934 164.798 9.20801C164.552 9.66668 164.216 10.0453 163.79 10.344C163.374 10.632 162.899 10.8507 162.366 11C161.843 11.1387 161.294 11.208 160.718 11.208H159.518V15ZM160.782 5.84801H159.518V9.49601H160.83C161.246 9.49601 161.608 9.43734 161.918 9.32001C162.238 9.19201 162.488 9.00001 162.67 8.74401C162.851 8.47734 162.952 8.14134 162.974 7.73601C162.974 7.26668 162.883 6.89334 162.702 6.61601C162.531 6.33868 162.286 6.14134 161.966 6.02401C161.646 5.90668 161.251 5.84801 160.782 5.84801ZM168.523 15H166.443V7.24001H167.531L168.219 8.53601C168.432 8.34401 168.693 8.15201 169.003 7.96001C169.312 7.75734 169.627 7.58668 169.947 7.44801C170.277 7.30934 170.581 7.24001 170.859 7.24001L171.275 8.90401C171.029 8.90401 170.752 8.96268 170.443 9.08001C170.133 9.19734 169.808 9.35734 169.467 9.56001C169.136 9.76268 168.821 9.99734 168.523 10.264V15ZM175.982 15.192C175.139 15.192 174.408 15.0267 173.789 14.696C173.171 14.3653 172.691 13.896 172.35 13.288C172.008 12.6693 171.838 11.9493 171.838 11.128C171.848 10.296 172.019 9.57601 172.35 8.96801C172.691 8.34934 173.171 7.87468 173.789 7.54401C174.419 7.20268 175.15 7.03201 175.982 7.03201C176.835 7.03201 177.566 7.19734 178.174 7.52801C178.792 7.85868 179.272 8.32801 179.614 8.93601C179.955 9.54401 180.126 10.264 180.126 11.096C180.126 11.9173 179.955 12.6373 179.614 13.256C179.272 13.8747 178.792 14.3547 178.174 14.696C177.555 15.0267 176.824 15.192 175.982 15.192ZM175.998 13.416C176.392 13.416 176.734 13.3147 177.022 13.112C177.32 12.9093 177.555 12.632 177.726 12.28C177.896 11.928 177.982 11.5333 177.982 11.096C177.982 10.648 177.896 10.2533 177.726 9.91201C177.555 9.57068 177.32 9.30401 177.022 9.11201C176.723 8.90934 176.376 8.80801 175.982 8.80801C175.598 8.80801 175.251 8.90934 174.942 9.11201C174.643 9.31468 174.408 9.59201 174.238 9.94401C174.067 10.2853 173.982 10.68 173.982 11.128C173.982 11.576 174.067 11.9707 174.238 12.312C174.408 12.6533 174.648 12.9253 174.958 13.128C175.267 13.32 175.614 13.416 175.998 13.416ZM182.612 15H181.556V3.88001L183.62 3.70401V13.672L182.612 15ZM182.916 9.83201L182.324 8.47201C182.569 8.17334 182.83 7.91734 183.108 7.70401C183.396 7.49068 183.705 7.32534 184.036 7.20801C184.366 7.09068 184.713 7.03201 185.076 7.03201C185.886 7.03201 186.58 7.19734 187.156 7.52801C187.742 7.85868 188.19 8.32801 188.5 8.93601C188.82 9.54401 188.98 10.2587 188.98 11.08C188.98 11.9013 188.82 12.6213 188.5 13.24C188.19 13.848 187.742 14.328 187.156 14.68C186.569 15.0213 185.849 15.192 184.996 15.192C184.686 15.192 184.35 15.1227 183.988 14.984C183.636 14.8453 183.31 14.664 183.012 14.44C182.713 14.216 182.484 13.9813 182.324 13.736L182.916 12.328C183.278 12.744 183.625 13.032 183.956 13.192C184.286 13.3413 184.633 13.416 184.996 13.416C185.39 13.416 185.726 13.3147 186.004 13.112C186.281 12.9093 186.484 12.632 186.612 12.28C186.75 11.9173 186.82 11.5173 186.82 11.08C186.82 10.632 186.75 10.2427 186.612 9.91201C186.473 9.57068 186.27 9.30401 186.004 9.11201C185.737 8.90934 185.401 8.80801 184.996 8.80801C184.622 8.80801 184.276 8.89334 183.956 9.06401C183.636 9.23468 183.289 9.49068 182.916 9.83201ZM191.839 12.68C191.839 12.8293 191.882 12.9733 191.967 13.112C192.052 13.24 192.164 13.3467 192.303 13.432C192.452 13.5067 192.623 13.544 192.815 13.544C193.103 13.544 193.391 13.48 193.679 13.352C193.978 13.224 194.26 13.032 194.527 12.776V11.592H192.959C192.596 11.592 192.319 11.704 192.127 11.928C191.935 12.152 191.839 12.4027 191.839 12.68ZM191.007 9.46401L190.447 7.73601C190.65 7.59734 190.927 7.48001 191.279 7.38401C191.631 7.27734 191.988 7.19201 192.351 7.12801C192.724 7.06401 193.018 7.03201 193.231 7.03201C193.85 7.03201 194.415 7.15468 194.927 7.40001C195.439 7.64534 195.844 7.98668 196.143 8.42401C196.452 8.85068 196.607 9.34134 196.607 9.89601V15H195.247L194.895 14.168C194.607 14.4667 194.287 14.712 193.935 14.904C193.594 15.096 193.231 15.192 192.847 15.192C191.898 15.192 191.194 14.9627 190.735 14.504C190.276 14.0347 190.047 13.4267 190.047 12.68C190.047 11.88 190.319 11.272 190.863 10.856C191.407 10.4293 192.116 10.2107 192.991 10.2H194.511V10.184C194.5 9.80001 194.383 9.50134 194.159 9.28801C193.946 9.06401 193.647 8.95201 193.263 8.95201C192.9 8.95201 192.506 9.00534 192.079 9.11201C191.652 9.21868 191.295 9.33601 191.007 9.46401ZM199.518 15H198.462V3.88001L200.526 3.70401V13.672L199.518 15ZM199.822 9.83201L199.23 8.47201C199.475 8.17334 199.737 7.91734 200.014 7.70401C200.302 7.49068 200.611 7.32534 200.942 7.20801C201.273 7.09068 201.619 7.03201 201.982 7.03201C202.793 7.03201 203.486 7.19734 204.062 7.52801C204.649 7.85868 205.097 8.32801 205.406 8.93601C205.726 9.54401 205.886 10.2587 205.886 11.08C205.886 11.9013 205.726 12.6213 205.406 13.24C205.097 13.848 204.649 14.328 204.062 14.68C203.475 15.0213 202.755 15.192 201.902 15.192C201.593 15.192 201.257 15.1227 200.894 14.984C200.542 14.8453 200.217 14.664 199.918 14.44C199.619 14.216 199.39 13.9813 199.23 13.736L199.822 12.328C200.185 12.744 200.531 13.032 200.862 13.192C201.193 13.3413 201.539 13.416 201.902 13.416C202.297 13.416 202.633 13.3147 202.91 13.112C203.187 12.9093 203.39 12.632 203.518 12.28C203.657 11.9173 203.726 11.5173 203.726 11.08C203.726 10.632 203.657 10.2427 203.518 9.91201C203.379 9.57068 203.177 9.30401 202.91 9.11201C202.643 8.90934 202.307 8.80801 201.902 8.80801C201.529 8.80801 201.182 8.89334 200.862 9.06401C200.542 9.23468 200.195 9.49068 199.822 9.83201ZM209.257 15H207.161V7.24001H209.257V15ZM208.201 6.15201C207.871 6.15201 207.593 6.04001 207.369 5.81601C207.145 5.58134 207.033 5.29868 207.033 4.96801C207.033 4.63734 207.145 4.36001 207.369 4.13601C207.593 3.91201 207.865 3.80001 208.185 3.80001C208.505 3.80001 208.777 3.91201 209.001 4.13601C209.236 4.36001 209.353 4.63734 209.353 4.96801C209.353 5.29868 209.241 5.58134 209.017 5.81601C208.793 6.04001 208.521 6.15201 208.201 6.15201ZM213.229 15H211.165V3.88001L213.229 3.70401V15ZM217.242 15H215.146V7.24001H217.242V15ZM216.186 6.15201C215.855 6.15201 215.578 6.04001 215.354 5.81601C215.13 5.58134 215.018 5.29868 215.018 4.96801C215.018 4.63734 215.13 4.36001 215.354 4.13601C215.578 3.91201 215.85 3.80001 216.17 3.80001C216.49 3.80001 216.762 3.91201 216.986 4.13601C217.22 4.36001 217.338 4.63734 217.338 4.96801C217.338 5.29868 217.226 5.58134 217.002 5.81601C216.778 6.04001 216.506 6.15201 216.186 6.15201ZM222.781 7.27201L223.421 8.84001H221.373V12.152C221.373 12.5573 221.469 12.888 221.661 13.144C221.853 13.4 222.136 13.528 222.509 13.528C222.648 13.528 222.787 13.512 222.925 13.48C223.064 13.448 223.208 13.4 223.357 13.336L223.965 14.84C223.859 14.9253 223.715 15 223.533 15.064C223.352 15.1387 223.16 15.1973 222.957 15.24C222.755 15.2933 222.568 15.32 222.397 15.32C221.757 15.32 221.208 15.2133 220.749 15C220.301 14.776 219.949 14.456 219.693 14.04C219.437 13.624 219.309 13.1173 219.309 12.52V8.84001H218.253L218.269 7.27201H219.309V5.41601L221.373 5.04801V7.27201H222.781ZM226.667 15.368L227.035 14.456L224.363 7.57601L226.411 6.93601L228.219 11.944L229.899 7.24001H232.091L228.619 16.024C228.459 16.44 228.208 16.8187 227.867 17.16C227.526 17.512 227.136 17.8053 226.699 18.04C226.272 18.2747 225.83 18.4453 225.371 18.552L224.635 16.84C224.88 16.7333 225.142 16.6107 225.419 16.472C225.707 16.3333 225.963 16.1733 226.187 15.992C226.422 15.8107 226.582 15.6027 226.667 15.368Z" fill="#B5B3AA"/>
<path fill-rule="evenodd" clip-rule="evenodd" d="M47.6633 0.961937C47.5978 0.817513 47.4951 0.692552 47.3653 0.599529C47.2356 0.506506 47.0834 0.448676 46.9239 0.431814C46.7644 0.414952 46.6032 0.439647 46.4564 0.503433C46.3096 0.56722 46.1824 0.667866 46.0873 0.795323C45.9923 0.922781 45.9329 1.07259 45.9149 1.22979C45.897 1.387 45.9212 1.54609 45.985 1.6912C46.0489 1.83631 46.1503 1.96235 46.279 2.05673C46.4078 2.15112 46.5593 2.21055 46.7186 2.2291L46.8238 2.4337C46.2206 2.8778 45.783 3.50595 45.579 4.22055L44.4988 3.65449C44.5245 3.37233 44.4505 3.09008 44.2893 2.8556C44.1281 2.62111 43.8896 2.44884 43.6143 2.36797C43.339 2.28711 43.0438 2.30265 42.7788 2.41194C42.5138 2.52124 42.2953 2.71757 42.1603 2.96763C42.0253 3.2177 41.9822 3.50612 42.0382 3.78397C42.0942 4.06183 42.246 4.31202 42.4677 4.49212C42.6895 4.67222 42.9675 4.77114 43.2548 4.77211C43.542 4.77308 43.8208 4.67604 44.0438 4.49744L44.4794 4.7266C44.3213 4.82611 44.1735 4.94079 44.0382 5.06896C43.6376 5.4527 43.3343 5.92423 43.1531 6.44524C43.1213 6.53663 43.0922 6.63075 43.0687 6.72487C42.9754 6.69486 42.8778 6.67966 42.7796 6.67985C42.6434 6.67534 42.5079 6.70084 42.383 6.75448C42.258 6.80812 42.1467 6.88855 42.0572 6.98993C41.9678 7.09132 41.9023 7.2111 41.8657 7.34056C41.829 7.47002 41.8221 7.60591 41.8454 7.73834C41.8687 7.87077 41.9217 7.99641 42.0004 8.10612C42.0791 8.21583 42.1817 8.30686 42.3006 8.37257C42.4195 8.43828 42.5517 8.47703 42.6877 8.486C42.8237 8.49497 42.96 8.47393 43.0867 8.42442C43.2273 8.87127 43.481 9.27544 43.8239 9.59883L42.2527 10.4322C42.068 10.3606 41.8648 10.3499 41.6735 10.4019C41.4821 10.4539 41.3131 10.5657 41.1917 10.7205C41.0702 10.8753 41.003 11.0648 41.0001 11.2605C40.9972 11.4562 41.0587 11.6475 41.1754 11.8058C41.2922 11.964 41.4578 12.0807 41.6475 12.1382C41.8372 12.1957 42.0407 12.191 42.2274 12.1247C42.4141 12.0585 42.574 11.9343 42.6831 11.7707C42.7921 11.6072 42.8445 11.4132 42.8322 11.2179L43.7146 10.7473C43.6944 10.9016 43.6921 11.0577 43.7077 11.2124C43.7356 11.5179 43.8459 11.8103 44.0272 12.0595C44.2165 12.3138 44.486 12.499 44.7934 12.586C44.8935 12.6153 44.9964 12.6345 45.1005 12.6433L44.9207 12.8929C44.6406 12.8311 44.3474 12.8666 44.0908 12.9935C43.8343 13.1204 43.63 13.3308 43.5127 13.5891C43.3954 13.8475 43.3722 14.1378 43.4471 14.4111C43.522 14.6844 43.6903 14.9237 43.9236 15.0886C44.1569 15.2535 44.4408 15.3339 44.7272 15.316C45.0137 15.2982 45.2851 15.1833 45.4955 14.9907C45.7059 14.7982 45.8423 14.5399 45.8817 14.2595C45.9211 13.9791 45.8611 13.6939 45.7118 13.4521L46.0396 12.9966C46.1066 13.1986 46.2159 13.3845 46.3604 13.5422C46.5708 13.7657 46.8327 13.936 47.1239 14.0387C47.4092 14.1389 47.7104 14.1874 48.0132 14.1819C48.2096 14.1822 48.4053 14.1579 48.5955 14.1096V14.1451C48.3992 14.2406 48.2405 14.3976 48.1441 14.5914C48.0477 14.7852 48.0191 15.0051 48.0626 15.2166C48.1062 15.4282 48.2195 15.6196 48.3849 15.761C48.5503 15.9024 48.7585 15.9859 48.9771 15.9984C49.1956 16.0109 49.4122 15.9517 49.5931 15.8301C49.7739 15.7085 49.9089 15.5313 49.977 15.3261C50.0451 15.1209 50.0424 14.8993 49.9693 14.6958C49.8963 14.4923 49.7571 14.3183 49.5733 14.201L49.6314 13.744C49.8439 13.8049 50.0614 13.8473 50.2815 13.8709C51.041 13.9524 51.8065 13.7836 52.4584 13.3908C52.5744 13.3213 52.6861 13.2452 52.7931 13.163L52.9964 13.4467C52.9356 13.5473 52.8891 13.6556 52.8581 13.7686C52.788 14.0275 52.8057 14.302 52.9085 14.55C53.0114 14.7981 53.1937 15.0062 53.4277 15.1425C53.6617 15.2788 53.9345 15.3358 54.2045 15.3048C54.4744 15.2739 54.7267 15.1567 54.9227 14.9711C55.1188 14.7855 55.2478 14.5417 55.2902 14.277C55.3326 14.0123 55.286 13.7411 55.1575 13.505C55.029 13.2688 54.8257 13.0806 54.5786 12.9691C54.3315 12.8576 54.0541 12.8289 53.7889 12.8874L53.4764 12.4646C53.6297 12.2588 53.7595 12.0369 53.8636 11.8031C53.9698 11.5622 54.0473 11.31 54.0946 11.0515C54.4268 10.9613 54.7344 10.7991 54.995 10.5768L56.1941 10.9956C56.2405 11.1864 56.3487 11.357 56.5023 11.4818C56.6558 11.6065 56.8464 11.6785 57.0452 11.6869C57.2439 11.6953 57.4401 11.6397 57.6039 11.5283C57.7677 11.417 57.8903 11.2561 57.9531 11.0699C58.016 10.8838 58.0156 10.6825 57.9521 10.4966C57.8886 10.3106 57.7654 10.1502 57.6012 10.0394C57.437 9.92866 57.2406 9.87369 57.0419 9.88279C56.8432 9.8919 56.6529 9.96459 56.4998 10.0899L55.6409 9.78979C55.782 9.53935 55.8872 9.27081 55.9534 8.99185C56.0454 8.61415 56.0661 8.22297 56.0143 7.8379C55.9197 7.16251 55.6203 6.53109 55.1554 6.02649L55.5786 5.82326C55.7505 5.95627 55.9622 6.02949 56.1807 6.03149C56.3992 6.03349 56.6122 5.96418 56.7866 5.83434C56.961 5.7045 57.0869 5.52143 57.1448 5.31365C57.2027 5.10586 57.1893 4.88503 57.1066 4.68555C57.024 4.48607 56.8768 4.31914 56.6879 4.21077C56.4991 4.1024 56.2792 4.05867 56.0625 4.08639C55.8458 4.11411 55.6445 4.21173 55.49 4.36404C55.3354 4.51635 55.2363 4.7148 55.208 4.92847L54.4362 5.30084C54.5318 4.80114 54.477 4.28479 54.2785 3.81544C54.2328 3.71499 54.1781 3.61869 54.1153 3.52763L54.9272 2.68877C55.1963 2.78717 55.4915 2.79087 55.7631 2.69923C56.0346 2.60759 56.2656 2.42625 56.4171 2.1859C56.5687 1.94554 56.6313 1.66094 56.5945 1.38027C56.5577 1.09959 56.4237 0.84008 56.2151 0.645661C56.0066 0.451242 55.7363 0.333856 55.4501 0.313373C55.1639 0.29289 54.8793 0.370567 54.6445 0.533257C54.4096 0.695947 54.239 0.933656 54.1615 1.20615C54.084 1.47864 54.1043 1.76918 54.2191 2.02859L53.3892 2.89064C53.053 2.72289 52.6802 2.63905 52.3035 2.64649C51.9551 2.64868 51.6124 2.73434 51.3049 2.8961C51.1881 2.76536 51.0604 2.64446 50.9232 2.53464L51.0186 1.73806C51.2019 1.66371 51.3558 1.53274 51.4571 1.36482C51.5585 1.19689 51.6018 1.00106 51.5807 0.806748C51.5596 0.612436 51.4751 0.430124 51.34 0.28719C51.2049 0.144256 51.0264 0.0484164 50.8313 0.0140625C50.6362 -0.0202915 50.4351 0.00869493 50.2582 0.0966688C50.0812 0.184643 49.938 0.326855 49.85 0.501951C49.762 0.677046 49.7339 0.875573 49.7701 1.06772C49.8063 1.25986 49.9046 1.43526 50.0505 1.56756L49.991 2.02041C49.8162 1.95658 49.6362 1.9073 49.453 1.87309C49.0164 1.78921 48.5674 1.78921 48.1308 1.87309C47.9816 1.90146 47.8346 1.94021 47.691 1.98903L47.6011 1.81581C47.6829 1.68972 47.7316 1.54547 47.7428 1.39614C47.7539 1.24681 47.727 1.0971 47.6647 0.960573L47.6633 0.961937ZM52.9674 7.30321C53.0738 7.33236 53.1692 7.3919 53.2414 7.47435C53.3136 7.5568 53.3595 7.65846 53.3733 7.76656C53.387 7.87466 53.3681 7.98436 53.3188 8.08187C53.2696 8.17938 53.1922 8.26035 53.0963 8.31459C53.0005 8.36882 52.8906 8.39391 52.7804 8.38669C52.6701 8.37947 52.5645 8.34027 52.4768 8.27401C52.3891 8.20775 52.3233 8.1174 52.2875 8.01432C52.2517 7.91124 52.2477 7.80003 52.2758 7.69467C52.2948 7.62393 52.3277 7.5576 52.3728 7.49953C52.4179 7.44145 52.4743 7.39279 52.5386 7.35638C52.603 7.31996 52.674 7.2965 52.7476 7.28737C52.8212 7.27825 52.8959 7.28363 52.9674 7.30321ZM50.4889 5.72505C50.6556 5.69149 50.8287 5.70743 50.9862 5.77086C51.1437 5.83429 51.2786 5.94236 51.3738 6.08139C51.4691 6.22043 51.5204 6.3842 51.5212 6.55198C51.5221 6.71977 51.4725 6.88405 51.3787 7.02404C51.2849 7.16403 51.1511 7.27345 50.9943 7.33846C50.8374 7.40347 50.6646 7.42116 50.4975 7.38928C50.3305 7.35741 50.1768 7.2774 50.0559 7.15938C49.9349 7.04136 49.8522 6.89062 49.8181 6.72623C49.7728 6.50577 49.818 6.27659 49.9437 6.08891C50.0694 5.90124 50.2655 5.77039 50.4889 5.72505ZM48.0754 4.4838C48.1928 4.46031 48.3146 4.47166 48.4255 4.51642C48.5363 4.56118 48.6312 4.63734 48.6982 4.73527C48.7652 4.83321 48.8012 4.94852 48.8017 5.06665C48.8023 5.18477 48.7673 5.3004 48.7012 5.39892C48.6351 5.49744 48.5409 5.57442 48.4305 5.62015C48.32 5.66588 48.1983 5.6783 48.0807 5.65583C47.9631 5.63337 47.8549 5.57703 47.7698 5.49393C47.6847 5.41084 47.6264 5.30472 47.6024 5.18899C47.5865 5.11206 47.5861 5.03277 47.6012 4.95567C47.6164 4.87858 47.6468 4.80518 47.6907 4.73969C47.7346 4.67419 47.7912 4.61788 47.8572 4.57397C47.9233 4.53006 47.9974 4.49942 48.0754 4.4838ZM46.1889 8.22118C46.3203 8.25698 46.4381 8.33029 46.5274 8.4319C46.6167 8.5335 46.6735 8.65887 46.6908 8.79224C46.708 8.92562 46.6849 9.06105 46.6244 9.18151C46.5638 9.30198 46.4685 9.4021 46.3504 9.46929C46.2323 9.53649 46.0967 9.56776 45.9607 9.55918C45.8246 9.5506 45.6942 9.50255 45.5857 9.42106C45.4773 9.33958 45.3957 9.2283 45.3512 9.10121C45.3067 8.97412 45.3012 8.83689 45.3356 8.70677C45.3587 8.61927 45.3992 8.53717 45.4547 8.46525C45.5103 8.39333 45.5798 8.33303 45.6592 8.28784C45.7386 8.24266 45.8263 8.21349 45.9173 8.20205C46.0082 8.19061 46.1006 8.19711 46.1889 8.22118ZM48.6439 7.14498C48.8241 7.19109 48.9863 7.28896 49.11 7.42618C49.2336 7.5634 49.3131 7.73376 49.3384 7.91564C49.3637 8.09752 49.3336 8.2827 49.252 8.44768C49.1703 8.61266 49.0408 8.74999 48.8799 8.84222C48.7189 8.93446 48.5338 8.97745 48.348 8.96572C48.1623 8.954 47.9842 8.88809 47.8365 8.77638C47.6888 8.66466 47.5781 8.51217 47.5184 8.33827C47.4588 8.16438 47.4529 7.97692 47.5015 7.7997C47.566 7.56265 47.7233 7.36055 47.9388 7.23779C48.1543 7.11503 48.4104 7.08165 48.6508 7.14498H48.6439ZM48.1474 10.3845C48.216 10.4028 48.2776 10.4407 48.3244 10.4935C48.3711 10.5462 48.401 10.6115 48.4102 10.681C48.4194 10.7505 48.4075 10.8211 48.376 10.884C48.3445 10.9468 48.2949 10.9991 48.2333 11.0341C48.1717 11.0691 48.101 11.0853 48.0301 11.0808C47.9592 11.0762 47.8912 11.051 47.8348 11.0083C47.7784 10.9657 47.7361 10.9075 47.7132 10.8411C47.6903 10.7748 47.6878 10.7032 47.7062 10.6355C47.7311 10.5446 47.7915 10.4672 47.8742 10.4202C47.9569 10.3731 48.0551 10.3603 48.1474 10.3845ZM51.1334 9.76933C51.2399 9.79848 51.3352 9.85803 51.4074 9.94047C51.4796 10.0229 51.5255 10.1246 51.5393 10.2327C51.5531 10.3408 51.5342 10.4505 51.4849 10.548C51.4356 10.6455 51.3582 10.7265 51.2624 10.7807C51.1666 10.8349 51.0566 10.86 50.9464 10.8528C50.8362 10.8456 50.7306 10.8064 50.6429 10.7401C50.5552 10.6739 50.4893 10.5835 50.4536 10.4804C50.4178 10.3774 50.4137 10.2661 50.4419 10.1608C50.4599 10.0896 50.4924 10.0227 50.5373 9.96409C50.5822 9.90552 50.6386 9.85649 50.7032 9.81994C50.7678 9.78339 50.8392 9.76006 50.9131 9.75137C50.987 9.74267 51.062 9.74878 51.1334 9.76933ZM48.7822 13.3157L48.7338 13.2721C48.6289 13.173 48.5361 13.0623 48.4572 12.942C48.4214 12.8685 48.4138 12.7847 48.4357 12.706C48.4576 12.6273 48.5076 12.5591 48.5765 12.514C48.6453 12.4688 48.7284 12.4497 48.8105 12.4602C48.8925 12.4707 48.9679 12.51 49.0229 12.571C49.0741 12.6478 49.1344 12.7184 49.2027 12.7811C49.2756 12.8493 49.3542 12.9114 49.4378 12.9666C49.7288 13.0906 50.0369 13.1711 50.352 13.2053C50.9613 13.2704 51.5752 13.1341 52.0974 12.8179C52.5999 12.5149 52.995 12.0661 53.2288 11.533C53.3399 11.2876 53.414 11.0275 53.4487 10.761C53.4487 10.7514 53.4487 10.7419 53.4487 10.731C53.4617 10.6049 53.4617 10.4778 53.4487 10.3518C53.4371 10.2341 53.413 10.118 53.3768 10.0053C53.3632 9.96312 53.3581 9.9187 53.3619 9.87459C53.3657 9.83047 53.3782 9.78753 53.3988 9.7482C53.4194 9.70887 53.4477 9.67393 53.482 9.64538C53.5163 9.61683 53.556 9.59521 53.5988 9.58178C53.6415 9.56834 53.6866 9.56335 53.7313 9.56708C53.776 9.57081 53.8196 9.5832 53.8595 9.60353C53.8993 9.62385 53.9348 9.65173 53.9637 9.68556C53.9927 9.71939 54.0146 9.75852 54.0282 9.8007C54.0791 9.95908 54.1129 10.1223 54.1292 10.2877V10.3231C54.4629 10.168 54.7449 9.92247 54.9424 9.6152C55.1024 9.37456 55.2184 9.10821 55.2854 8.82817C55.358 8.52993 55.3744 8.22109 55.3338 7.91701C55.2356 7.18317 54.7958 6.4166 53.8553 5.8028C53.7965 5.76509 53.7509 5.71043 53.7246 5.64625C53.6984 5.58206 53.6928 5.51147 53.7087 5.44406C53.847 4.86572 53.7986 4.42242 53.6479 4.09506C53.5345 3.84379 53.34 3.63659 53.0946 3.50581C52.8517 3.37876 52.5798 3.31535 52.3049 3.32167C51.996 3.31682 51.695 3.41754 51.4529 3.60675C51.4246 3.63066 51.3929 3.65041 51.3589 3.6654C51.2373 3.73377 51.1361 3.83258 51.0657 3.95184C50.9633 4.09858 50.8936 4.26498 50.861 4.44016C50.8465 4.52842 50.797 4.6074 50.7235 4.65971C50.65 4.71202 50.5584 4.73338 50.4689 4.71909C50.3794 4.7048 50.2993 4.65604 50.2462 4.58352C50.1932 4.511 50.1715 4.42067 50.186 4.3324C50.2342 4.06158 50.3403 3.80399 50.4972 3.57674C50.566 3.47405 50.6457 3.37893 50.7351 3.29303C50.3559 2.90082 49.8607 2.63682 49.3202 2.53873C48.9699 2.47123 48.6097 2.47123 48.2594 2.53873C47.9058 2.60596 47.5704 2.74534 47.2746 2.94793C46.7394 3.31621 46.3176 3.9191 46.1502 4.77434V4.78934C46.1293 4.91056 46.1187 5.03329 46.1184 5.15626C46.119 5.27218 46.1338 5.3876 46.1627 5.49999C46.174 5.54316 46.1766 5.58811 46.1704 5.63228C46.1641 5.67644 46.1491 5.71896 46.1261 5.7574C46.1032 5.79584 46.0728 5.82945 46.0368 5.85632C46.0007 5.88318 45.9595 5.90277 45.9158 5.91396C45.872 5.92516 45.8264 5.92774 45.7816 5.92157C45.7369 5.91539 45.6937 5.90057 45.6548 5.87796C45.6158 5.85536 45.5817 5.8254 45.5545 5.7898C45.5272 5.7542 45.5074 5.71366 45.496 5.67049C45.4512 5.50354 45.428 5.33168 45.4269 5.15899C45.4269 5.12625 45.4269 5.09351 45.4269 5.06078C45.0751 5.13532 44.7528 5.30871 44.4988 5.56C44.1772 5.86869 43.9345 6.2483 43.7907 6.66758C43.6361 7.0917 43.597 7.54836 43.6773 7.99203C43.7379 8.28591 43.8595 8.56426 44.0344 8.80956C44.2094 9.05486 44.4339 9.26182 44.6938 9.41742C44.7086 9.42617 44.723 9.43574 44.7367 9.44606C44.8078 9.50184 44.8535 9.58313 44.8639 9.67212C44.8742 9.7611 44.8484 9.85051 44.792 9.92073C44.5016 10.263 44.3573 10.7032 44.3895 11.1483C44.4056 11.3322 44.4705 11.5086 44.5776 11.6598C44.6802 11.7966 44.8263 11.8955 44.9926 11.9408C45.2913 12.0281 45.7035 11.9777 46.2235 11.7199C46.3011 11.6786 46.3921 11.6692 46.4766 11.6939C46.5198 11.7062 46.5601 11.7267 46.5952 11.7543C46.6303 11.7819 46.6595 11.8161 46.6812 11.8548C46.7029 11.8936 46.7167 11.9362 46.7217 11.9802C46.7267 12.0242 46.7228 12.0688 46.7104 12.1113C46.5776 12.5451 46.6716 12.8643 46.8694 13.0907C47.0069 13.2308 47.1761 13.3369 47.3632 13.4003C47.5708 13.4755 47.7906 13.513 48.0118 13.5108C48.2814 13.5187 48.5475 13.4496 48.778 13.3117L48.7822 13.3157Z" fill="#5B00D8"/>
</g>
<defs>
<clipPath id="clip0_130_519">
<rect width="328" height="62" fill="white"/>
</clipPath>
</defs>
</svg>
