<svg width="493" height="40" viewBox="0 0 493 40" fill="none" xmlns="http://www.w3.org/2000/svg">
<rect x="1" y="1" width="491" height="38" rx="5" stroke="#5992FF" stroke-width="2"/>
<path d="M25.84 19.5L26.04 21.54H20.82L20.6 19.5H25.84ZM32.6806 26H30.1006V17.56L27.8206 18.44L26.8406 16.5L30.9606 14.68H32.6806V26Z" fill="#5992FF"/>
<path d="M244 20.3C244 19.1533 244.24 18.14 244.72 17.26C245.2 16.38 245.86 15.6867 246.7 15.18C247.54 14.6733 248.5 14.42 249.58 14.42C250.66 14.42 251.613 14.6733 252.44 15.18C253.28 15.6867 253.933 16.38 254.4 17.26C254.88 18.1267 255.12 19.12 255.12 20.24C255.12 21.4 254.88 22.4333 254.4 23.34C253.933 24.2467 253.28 24.96 252.44 25.48C251.6 26 250.64 26.26 249.56 26.26C248.48 26.26 247.52 26.0067 246.68 25.5C245.853 24.98 245.2 24.2733 244.72 23.38C244.24 22.4733 244 21.4467 244 20.3ZM246.38 20.24C246.38 20.9733 246.52 21.6267 246.8 22.2C247.08 22.7733 247.46 23.2267 247.94 23.56C248.42 23.88 248.973 24.04 249.6 24.04C250.213 24.04 250.76 23.88 251.24 23.56C251.72 23.2267 252.093 22.7867 252.36 22.24C252.64 21.68 252.78 21.0467 252.78 20.34C252.78 19.62 252.64 18.98 252.36 18.42C252.093 17.86 251.713 17.42 251.22 17.1C250.74 16.78 250.187 16.62 249.56 16.62C248.947 16.62 248.4 16.78 247.92 17.1C247.453 17.42 247.08 17.8467 246.8 18.38C246.52 18.9133 246.38 19.5333 246.38 20.24Z" fill="#5992FF"/>
<path d="M471.04 26H468.46V17.56L466.18 18.44L465.2 16.5L469.32 14.68H471.04V26Z" fill="#5992FF"/>
</svg>
