<svg width="123" height="118" viewBox="0 0 123 118" fill="none" xmlns="http://www.w3.org/2000/svg">
<path fill-rule="evenodd" clip-rule="evenodd" d="M48.1695 7.08C47.6962 6.02118 46.9534 5.10504 46.0153 4.42306C45.0772 3.74108 43.9766 3.31711 42.8234 3.19349C41.6703 3.06986 40.5048 3.25091 39.4435 3.71855C38.3821 4.18619 37.462 4.92406 36.775 5.8585C36.088 6.79293 35.6582 7.89123 35.5284 9.04374C35.3986 10.1963 35.5734 11.3626 36.0354 12.4265C36.4973 13.4903 37.2302 14.4143 38.161 15.1063C39.0917 15.7983 40.1877 16.234 41.3395 16.37L42.0995 17.87C37.7382 21.1258 34.5743 25.731 33.0995 30.97L25.2895 26.82C25.4756 24.7514 24.9405 22.6821 23.7749 20.9631C22.6094 19.244 20.8851 17.981 18.8946 17.3881C16.904 16.7953 14.7697 16.9092 12.8535 17.7105C10.9374 18.5118 9.35733 19.9511 8.38133 21.7845C7.40533 23.6178 7.09345 25.7323 7.49859 27.7693C7.90373 29.8064 9.00094 31.6406 10.6042 32.961C12.2074 34.2813 14.2179 35.0066 16.2949 35.0137C18.3718 35.0208 20.3873 34.3094 21.9995 33L25.1495 34.68C24.0061 35.4096 22.9376 36.2503 21.9595 37.19C19.0625 40.0033 16.8698 43.4602 15.5595 47.28C15.3295 47.95 15.1195 48.64 14.9495 49.33C14.2747 49.11 13.5693 48.9986 12.8595 49C11.8747 48.9669 10.8948 49.1538 9.99129 49.5471C9.08775 49.9403 8.28323 50.53 7.63626 51.2733C6.98928 52.0166 6.51613 52.8947 6.25121 53.8438C5.98629 54.793 5.93627 55.7892 6.10479 56.7601C6.27331 57.731 6.65613 58.6521 7.2254 59.4564C7.79468 60.2608 8.53609 60.9281 9.39569 61.4099C10.2553 61.8916 11.2115 62.1757 12.1947 62.2415C13.1779 62.3072 14.1634 62.153 15.0795 61.79C16.0963 65.066 17.9306 68.0291 20.4095 70.4L9.04952 76.51C7.71431 75.9847 6.24472 75.9067 4.86141 76.2878C3.47811 76.6688 2.25575 77.4884 1.37789 78.6233C0.50003 79.7582 0.014044 81.1473 -0.00709267 82.582C-0.0282293 84.0167 0.416624 85.4195 1.26067 86.5798C2.10472 87.7401 3.3024 88.5953 4.67388 89.017C6.04536 89.4386 7.51661 89.4039 8.86671 88.9182C10.2168 88.4324 11.3729 87.5218 12.1614 86.3231C12.9499 85.1243 13.3282 83.7021 13.2395 82.27L19.6195 78.82C19.4733 79.9511 19.4565 81.0951 19.5695 82.23C19.7712 84.4691 20.5689 86.6134 21.8795 88.44C23.2482 90.3043 25.1966 91.6618 27.4195 92.3C28.1435 92.5145 28.8872 92.6553 29.6395 92.72L28.3395 94.55C26.3144 94.0967 24.1948 94.3572 22.3397 95.2873C20.4846 96.2175 19.0079 97.7602 18.1597 99.6542C17.3115 101.548 17.1439 103.677 17.6853 105.68C18.2266 107.684 19.4437 109.439 21.1304 110.648C22.8171 111.857 24.8698 112.446 26.9409 112.315C29.0121 112.184 30.9743 111.341 32.4955 109.93C34.0167 108.518 35.0034 106.624 35.2884 104.569C35.5734 102.513 35.1393 100.422 34.0595 98.65L36.4295 95.31C36.914 96.7912 37.7044 98.154 38.7495 99.31C40.2705 100.949 42.1639 102.198 44.2695 102.95C46.332 103.685 48.5104 104.04 50.6995 104C52.1196 104.003 53.5343 103.824 54.9095 103.47V103.73C53.4903 104.431 52.3429 105.581 51.646 107.002C50.9491 108.423 50.742 110.035 51.057 111.586C51.3719 113.137 52.1912 114.54 53.3871 115.577C54.5831 116.614 56.0884 117.226 57.6685 117.317C59.2485 117.409 60.8145 116.975 62.1222 116.084C63.43 115.192 64.406 113.893 64.8981 112.389C65.3903 110.884 65.3709 109.26 64.8429 107.768C64.315 106.275 63.3082 105 61.9795 104.14L62.3995 100.79C63.9362 101.236 65.5088 101.547 67.0995 101.72C72.591 102.318 78.1258 101.08 82.8395 98.2C83.6778 97.6906 84.4859 97.133 85.2595 96.53L86.7295 98.61C86.2899 99.3473 85.9534 100.141 85.7295 100.97C85.2224 102.868 85.3504 104.88 86.0941 106.699C86.8377 108.518 88.1561 110.043 89.848 111.042C91.5398 112.041 93.5122 112.46 95.4639 112.233C97.4156 112.006 99.2395 111.146 100.657 109.786C102.074 108.425 103.008 106.638 103.314 104.697C103.621 102.756 103.284 100.769 102.355 99.0372C101.426 97.3059 99.9556 95.9262 98.1689 95.1087C96.3822 94.2913 94.377 94.081 92.4595 94.51L90.1995 91.41C91.308 89.901 92.247 88.2745 92.9995 86.56C93.767 84.794 94.3274 82.945 94.6695 81.05C97.0714 80.3889 99.2955 79.2 101.18 77.57L109.85 80.64C110.185 82.0387 110.967 83.2899 112.078 84.2045C113.188 85.119 114.566 85.647 116.003 85.7086C117.44 85.7702 118.858 85.3621 120.043 84.546C121.227 83.7298 122.114 82.5501 122.568 81.1853C123.022 79.8205 123.019 78.3448 122.56 76.9817C122.101 75.6185 121.211 74.4419 120.023 73.63C118.836 72.8181 117.416 72.4151 115.979 72.4818C114.543 72.5486 113.167 73.0815 112.06 74L105.85 71.8C106.87 69.964 107.63 67.9952 108.11 65.95C108.775 63.181 108.924 60.3131 108.55 57.49C107.866 52.5385 105.701 47.9094 102.34 44.21L105.4 42.72C106.642 43.6952 108.173 44.2319 109.753 44.2466C111.332 44.2613 112.873 43.7531 114.133 42.8013C115.394 41.8494 116.305 40.5072 116.723 38.9839C117.142 37.4605 117.045 35.8415 116.447 34.3791C115.85 32.9166 114.786 31.6928 113.42 30.8983C112.055 30.1038 110.465 29.7832 108.898 29.9864C107.331 30.1897 105.876 30.9054 104.758 32.022C103.641 33.1386 102.924 34.5935 102.72 36.16L97.1395 38.89C97.8304 35.2265 97.4342 31.441 95.9995 28C95.6685 27.2636 95.2736 26.5576 94.8195 25.89L100.69 19.74C102.635 20.4614 104.77 20.4885 106.733 19.8167C108.696 19.1449 110.367 17.8154 111.462 16.0533C112.558 14.2911 113.011 12.2046 112.744 10.1469C112.478 8.08918 111.509 6.18662 110.001 4.76127C108.494 3.33592 106.54 2.47533 104.47 2.32516C102.401 2.17499 100.343 2.74446 98.6452 3.9372C96.9474 5.12993 95.7139 6.87266 95.1534 8.8704C94.5929 10.8681 94.7399 12.9982 95.5695 14.9L89.5695 21.22C87.1387 19.9901 84.4432 19.3755 81.7195 19.43C79.2001 19.4461 76.7224 20.0741 74.4995 21.26C73.6547 20.3015 72.7315 19.4151 71.7395 18.61L72.4295 12.77C73.7545 12.225 74.867 11.2648 75.5998 10.0336C76.3326 8.80249 76.6462 7.36683 76.4935 5.94226C76.3408 4.51769 75.7301 3.18109 74.753 2.1332C73.776 1.0853 72.4853 0.382667 71.0749 0.130807C69.6645 -0.121054 68.2104 0.0914555 66.9311 0.736422C65.6517 1.38139 64.6162 2.424 63.9799 3.70768C63.3436 4.99137 63.1409 6.44683 63.4023 7.85552C63.6637 9.2642 64.375 10.5501 65.4295 11.52L64.9995 14.84C63.7353 14.3721 62.4341 14.0108 61.1095 13.76C57.9525 13.145 54.7065 13.145 51.5495 13.76C50.4708 13.968 49.4081 14.252 48.3695 14.61L47.7195 13.34C48.3116 12.4156 48.6637 11.3581 48.744 10.2633C48.8244 9.16848 48.6303 8.07092 48.1795 7.07L48.1695 7.08ZM86.5195 53.57C87.2891 53.7837 87.9784 54.2203 88.5005 54.8247C89.0227 55.4292 89.3544 56.1745 89.4541 56.967C89.5538 57.7595 89.4169 58.5638 89.0606 59.2787C88.7043 59.9936 88.1447 60.5872 87.4519 60.9848C86.7592 61.3824 85.9643 61.5663 85.1674 61.5134C84.3704 61.4605 83.6068 61.173 82.9728 60.6873C82.3387 60.2015 81.8624 59.5391 81.6038 58.7834C81.3453 58.0277 81.3159 57.2124 81.5195 56.44C81.6562 55.9214 81.8946 55.4351 82.2208 55.0093C82.5469 54.5835 82.9544 54.2268 83.4196 53.9598C83.8847 53.6928 84.3983 53.5209 84.9305 53.4539C85.4626 53.387 86.0027 53.4265 86.5195 53.57ZM68.5995 42C69.8048 41.754 71.056 41.8709 72.1948 42.3359C73.3336 42.8009 74.309 43.5931 74.9976 44.6125C75.6862 45.6318 76.0571 46.8324 76.0634 48.0625C76.0697 49.2927 75.7111 50.497 75.033 51.5233C74.3548 52.5496 73.3876 53.3518 72.2535 53.8285C71.1195 54.3051 69.8696 54.4348 68.6619 54.2011C67.4541 53.9674 66.3428 53.3808 65.4684 52.5156C64.5941 51.6503 63.9959 50.5452 63.7495 49.34C63.4218 47.7237 63.7484 46.0435 64.6575 44.6676C65.5667 43.2917 66.9842 42.3324 68.5995 42ZM51.1495 32.9C51.9982 32.7277 52.8789 32.811 53.6804 33.1391C54.4818 33.4672 55.168 34.0256 55.6522 34.7436C56.1363 35.4616 56.3968 36.307 56.4007 37.173C56.4045 38.039 56.1516 38.8867 55.6738 39.609C55.196 40.3313 54.5148 40.8957 53.7163 41.231C52.9178 41.5662 52.0379 41.6572 51.1877 41.4925C50.3375 41.3278 49.5552 40.9148 48.9397 40.3056C48.3241 39.6964 47.903 38.9184 47.7295 38.07C47.6142 37.5059 47.6112 36.9247 47.7207 36.3595C47.8302 35.7942 48.05 35.2561 48.3677 34.776C48.6853 34.2958 49.0945 33.8829 49.5718 33.561C50.0492 33.2391 50.5853 33.0145 51.1495 32.9ZM37.5095 60.3C38.4597 60.5625 39.3111 61.0999 39.9567 61.8448C40.6023 62.5897 41.0133 63.5088 41.1381 64.4867C41.2628 65.4645 41.0958 66.4574 40.6579 67.3405C40.2201 68.2237 39.5309 68.9577 38.6771 69.4503C37.8233 69.943 36.8429 70.1722 35.8592 70.1093C34.8754 70.0464 33.9322 69.6941 33.1481 69.0967C32.364 68.4993 31.774 67.6835 31.4522 66.7518C31.1304 65.82 31.0912 64.814 31.3395 63.86C31.5065 63.2185 31.7994 62.6166 32.2011 62.0894C32.6028 61.5621 33.1053 61.12 33.6795 60.7887C34.2536 60.4574 34.8879 60.2436 35.5454 60.1597C36.2029 60.0758 36.8706 60.1235 37.5095 60.3ZM55.2595 52.41C56.5623 52.748 57.7352 53.4656 58.6293 54.4716C59.5234 55.4775 60.0984 56.7265 60.2812 58.0599C60.464 59.3934 60.2465 60.751 59.6561 61.9605C59.0658 63.1701 58.1294 64.1768 56.9657 64.8531C55.802 65.5293 54.4636 65.8444 53.1205 65.7585C51.7774 65.6725 50.4901 65.1894 49.4221 64.3703C48.3541 63.5513 47.5536 62.4333 47.1223 61.1584C46.6909 59.8835 46.6482 58.5092 46.9995 57.21C47.4659 55.4721 48.6031 53.9904 50.1613 53.0904C51.7194 52.1904 53.5711 51.9457 55.3095 52.41H55.2595ZM51.6695 76.16C52.1656 76.294 52.6109 76.572 52.9492 76.9589C53.2874 77.3457 53.5034 77.8242 53.5698 78.3338C53.6363 78.8433 53.5503 79.3612 53.3226 79.8219C53.095 80.2826 52.7359 80.6655 52.2908 80.9223C51.8456 81.179 51.3344 81.2981 50.8216 81.2645C50.3088 81.2309 49.8175 81.0461 49.4096 80.7334C49.0018 80.4207 48.6958 79.9942 48.5303 79.5077C48.3647 79.0212 48.3471 78.4965 48.4795 78C48.6599 77.3339 49.0969 76.7663 49.6947 76.4215C50.2925 76.0766 51.0026 75.9826 51.6695 76.16ZM73.2595 71.65C74.0291 71.8637 74.7184 72.3003 75.2405 72.9047C75.7627 73.5092 76.0945 74.2545 76.1941 75.047C76.2938 75.8395 76.1569 76.6438 75.8006 77.3587C75.4443 78.0736 74.8847 78.6672 74.1919 79.0648C73.4992 79.4624 72.7043 79.6463 71.9073 79.5934C71.1104 79.5405 70.3468 79.253 69.7128 78.7673C69.0787 78.2815 68.6024 77.6191 68.3438 76.8634C68.0853 76.1077 68.0559 75.2924 68.2595 74.52C68.3901 73.9978 68.6247 73.5073 68.9493 73.0779C69.274 72.6485 69.6819 72.289 70.1488 72.021C70.6157 71.7531 71.1318 71.5821 71.6663 71.5183C72.2008 71.4546 72.7427 71.4994 73.2595 71.65ZM56.2595 97.65L55.9095 97.33C55.1511 96.6037 54.4799 95.7916 53.9095 94.91C53.6508 94.3708 53.5956 93.7563 53.7541 93.1797C53.9125 92.6031 54.2741 92.1031 54.772 91.7719C55.27 91.4408 55.8709 91.3007 56.4639 91.3775C57.057 91.4543 57.6024 91.7429 57.9995 92.19C58.3699 92.7534 58.8063 93.2704 59.2995 93.73C59.8268 94.2305 60.3955 94.6855 60.9995 95.09C63.1034 95.9994 65.3313 96.5893 67.6095 96.84C72.0146 97.3174 76.4536 96.3185 80.2295 94C83.8622 91.7785 86.7193 88.4883 88.4095 84.58C89.2131 82.7811 89.7488 80.8742 89.9995 78.92C89.9995 78.85 89.9995 78.78 89.9995 78.7C90.0936 77.7757 90.0936 76.8443 89.9995 75.92C89.916 75.0574 89.7417 74.206 89.4795 73.38C89.381 73.0707 89.3444 72.7451 89.3718 72.4217C89.3991 72.0983 89.4899 71.7834 89.639 71.4951C89.788 71.2068 89.9924 70.9506 90.2404 70.7413C90.4884 70.5319 90.7753 70.3735 91.0845 70.275C91.3938 70.1765 91.7194 70.1399 92.0428 70.1673C92.3662 70.1946 92.6811 70.2854 92.9694 70.4344C93.2578 70.5835 93.5139 70.7878 93.7232 71.0359C93.9326 71.2839 94.091 71.5707 94.1895 71.88C94.5572 73.0411 94.8019 74.2377 94.9195 75.45V75.71C97.3321 74.5727 99.3715 72.7727 100.8 70.52C101.956 68.7558 102.795 66.8031 103.28 64.75C103.804 62.5636 103.923 60.2993 103.63 58.07C102.92 52.69 99.7395 47.07 92.9395 42.57C92.5141 42.2935 92.1842 41.8928 91.9945 41.4223C91.8049 40.9517 91.7647 40.4342 91.8795 39.94C92.8795 35.7 92.5295 32.45 91.4395 30.05C90.6198 28.2078 89.2133 26.6888 87.4395 25.73C85.6832 24.7985 83.717 24.3337 81.7295 24.38C79.4964 24.3444 77.3199 25.0829 75.5695 26.47C75.3647 26.6453 75.1357 26.7901 74.8895 26.9C74.0104 27.4012 73.2791 28.1256 72.7695 29C72.0296 30.0758 71.5252 31.2958 71.2895 32.58C71.1848 33.2271 70.8272 33.8061 70.2956 34.1896C69.7639 34.5732 69.1016 34.7298 68.4545 34.625C67.8074 34.5202 67.2284 34.1627 66.8449 33.631C66.4614 33.0994 66.3048 32.4371 66.4095 31.79C66.7578 29.8046 67.5248 27.916 68.6595 26.25C69.1568 25.4971 69.7334 24.7998 70.3795 24.17C67.6375 21.2946 64.0571 19.3591 60.1495 18.64C57.6168 18.1452 55.0122 18.1452 52.4795 18.64C49.9231 19.1329 47.4979 20.1547 45.3595 21.64C41.4895 24.34 38.4395 28.76 37.2295 35.03V35.14C37.0783 36.0287 37.0014 36.9285 36.9995 37.83C37.0036 38.6799 37.1111 39.5261 37.3195 40.35C37.4016 40.6665 37.4205 40.996 37.3752 41.3198C37.33 41.6436 37.2213 41.9554 37.0556 42.2372C36.8898 42.519 36.6702 42.7654 36.4092 42.9624C36.1482 43.1593 35.851 43.3029 35.5345 43.385C35.218 43.4671 34.8885 43.486 34.5647 43.4407C34.2409 43.3954 33.9292 43.2868 33.6473 43.1211C33.3655 42.9553 33.1191 42.7357 32.9221 42.4747C32.7252 42.2137 32.5816 41.9165 32.4995 41.6C32.1758 40.376 32.0078 39.1161 31.9995 37.85C31.9995 37.61 31.9995 37.37 31.9995 37.13C29.4564 37.6765 27.1259 38.9477 25.2895 40.79C22.964 43.0531 21.2091 45.8361 20.1695 48.91C19.0522 52.0194 18.7694 55.3673 19.3495 58.62C19.7877 60.7746 20.6669 62.8152 21.9318 64.6136C23.1967 66.412 24.8199 67.9292 26.6995 69.07C26.8067 69.1342 26.9102 69.2043 27.0095 69.28C27.5233 69.6889 27.854 70.2849 27.929 70.9373C28.004 71.5897 27.8172 72.2452 27.4095 72.76C25.3094 75.2693 24.2661 78.4962 24.4995 81.76C24.6156 83.1078 25.0847 84.4012 25.8595 85.51C26.6012 86.5126 27.6574 87.2379 28.8595 87.57C31.0195 88.21 33.9995 87.84 37.7595 85.95C38.3204 85.6472 38.9784 85.5788 39.5895 85.76C39.9015 85.8497 40.1928 86.0001 40.4467 86.2025C40.7005 86.4049 40.912 86.6554 41.0689 86.9396C41.2259 87.2238 41.3253 87.5362 41.3614 87.8588C41.3976 88.1815 41.3697 88.5081 41.2795 88.82C40.3195 92 40.9995 94.34 42.4295 96C43.4239 97.0275 44.6472 97.8053 45.9995 98.27C47.501 98.8215 49.0901 99.096 50.6895 99.08C52.6384 99.1383 54.5625 98.6312 56.2295 97.62L56.2595 97.65Z" fill="url(#paint0_linear_130_526)"/>
<defs>
<linearGradient id="paint0_linear_130_526" x1="-2.3039e-06" y1="-18" x2="61.4493" y2="117.329" gradientUnits="userSpaceOnUse">
<stop stop-color="#5B00D8"/>
<stop offset="1" stop-color="#BD95FF"/>
</linearGradient>
</defs>
</svg>
